<?xml version="1.0" standalone="no"?>
<!DOCTYPE svg PUBLIC "-//W3C//DTD SVG 20010904//EN"
 "http://www.w3.org/TR/2001/REC-SVG-20010904/DTD/svg10.dtd">
<svg version="1.0" xmlns="http://www.w3.org/2000/svg"
 width="473.000000pt" height="473.000000pt" viewBox="0 0 473.000000 473.000000"
 preserveAspectRatio="xMidYMid meet">
<metadata>
Created by potrace 1.16, written by Peter Selinger 2001-2019
</metadata>
<g transform="translate(0.000000,473.000000) scale(0.100000,-0.100000)"
fill="#000000" stroke="none">
<path d="M4 4673 c22 -185 65 -552 101 -868 49 -432 316 -2968 320 -3045 10
-177 18 -264 40 -485 14 -132 25 -248 25 -257 0 -12 8 -18 21 -18 21 0 22 3
15 78 -12 136 -45 435 -56 502 -5 36 -14 94 -20 130 -9 63 -34 285 -65 580 -8
80 -64 618 -125 1195 -118 1132 -135 1291 -150 1460 -6 61 -24 254 -40 430
-17 175 -30 327 -30 337 0 12 -7 18 -21 18 -21 0 -21 -3 -15 -57z"/>
<path d="M60 4724 c0 -3 7 -60 15 -127 52 -423 131 -1142 244 -2232 55 -528
112 -1067 127 -1197 14 -130 24 -240 21 -245 -6 -9 -6 -7 49 -551 37 -359 39
-372 59 -372 21 0 21 1 -22 398 -58 536 -55 516 -63 522 -3 3 -16 102 -28 220
-12 118 -62 600 -112 1070 -111 1050 -152 1446 -184 1795 -14 149 -30 315 -36
370 -18 182 -30 318 -30 337 0 11 -7 18 -20 18 -11 0 -20 -3 -20 -6z"/>
<path d="M124 4698 c6 -34 17 -134 91 -783 46 -409 284 -2686 304 -2910 7 -71
16 -173 21 -225 6 -52 12 -129 15 -170 10 -159 47 -485 56 -495 5 -5 9 -23 10
-40 1 -16 4 -41 8 -55 17 -55 7 176 -15 370 -20 181 -31 274 -73 620 -68 565
-380 3601 -381 3708 0 6 -10 12 -21 12 -18 0 -20 -4 -15 -32z"/>
<path d="M184 4703 c15 -73 123 -1053 275 -2508 115 -1102 148 -1439 156
-1595 7 -119 49 -475 56 -478 5 -2 10 -18 10 -35 3 -84 16 -86 16 -2 1 90 -31
410 -67 690 -27 204 -287 2635 -335 3135 -28 292 -75 794 -75 807 0 7 -9 13
-21 13 -17 0 -20 -4 -15 -27z"/>
<path d="M246 4713 c2 -10 13 -99 24 -198 11 -99 35 -317 55 -485 30 -268 262
-2461 281 -2660 4 -41 7 -88 6 -105 -1 -39 14 -215 33 -375 8 -69 24 -224 35
-345 12 -121 26 -231 31 -245 6 -13 17 -85 25 -159 15 -133 24 -178 24 -110
-1 19 -7 85 -13 146 -7 62 -10 114 -6 115 7 3 -8 164 -45 483 -8 72 -23 209
-32 305 -10 96 -21 177 -24 180 -9 6 -4 -36 -100 873 -146 1388 -260 2518
-260 2586 0 6 -9 11 -19 11 -13 0 -18 -6 -15 -17z"/>
<path d="M310 4710 c0 -10 13 -135 30 -277 70 -609 96 -855 225 -2083 75 -712
138 -1340 140 -1395 4 -140 52 -599 70 -665 8 -30 20 -109 27 -175 6 -66 14
-111 16 -101 2 11 -1 67 -7 125 -5 58 -10 135 -10 171 0 82 -58 625 -70 648
-4 9 -11 44 -14 77 -4 33 -69 659 -146 1390 -77 732 -154 1476 -171 1655 -37
388 -60 632 -60 643 0 4 -7 7 -15 7 -8 0 -15 -9 -15 -20z"/>
<path d="M370 4715 c0 -8 14 -133 30 -277 99 -856 296 -2738 304 -2908 8 -154
35 -400 47 -425 5 -11 11 -72 13 -135 6 -159 53 -615 70 -670 8 -25 20 -102
27 -172 6 -71 15 -128 19 -128 3 0 0 55 -7 123 -8 67 -12 138 -10 157 5 43
-58 641 -72 688 -6 19 -13 91 -16 160 -5 127 -13 200 -40 387 -23 152 -209
1887 -265 2465 -23 240 -70 735 -70 743 0 4 -7 7 -15 7 -8 0 -15 -7 -15 -15z"/>
<path d="M430 4716 c0 -7 13 -128 30 -267 90 -771 316 -2930 330 -3149 10
-179 71 -756 95 -910 8 -52 22 -161 31 -243 10 -81 21 -147 25 -147 5 0 6 12
4 28 -8 48 -24 234 -30 347 -8 159 -84 886 -95 910 -5 11 -11 40 -13 65 -2 25
-50 473 -105 995 -131 1228 -242 2320 -242 2380 0 3 -7 5 -15 5 -8 0 -15 -6
-15 -14z"/>
<path d="M490 4719 c0 -6 9 -83 20 -172 66 -546 288 -2651 295 -2804 3 -58 9
-120 15 -137 14 -44 62 -501 66 -631 4 -136 42 -497 53 -505 4 -3 18 -110 31
-237 13 -128 28 -233 32 -233 5 0 6 15 3 33 -13 82 -45 431 -40 446 7 23 -42
480 -53 495 -5 6 -12 40 -15 76 -3 36 -15 154 -27 264 -11 109 -23 246 -26
305 -2 58 -9 120 -14 136 -11 35 -189 1715 -255 2405 -58 604 -54 570 -71 570
-8 0 -14 -5 -14 -11z"/>
<path d="M550 4723 c0 -5 9 -82 20 -173 55 -454 147 -1317 294 -2750 19 -186
31 -331 29 -350 -4 -31 98 -964 106 -970 4 -3 19 -112 32 -242 13 -131 27
-238 32 -238 4 0 6 19 2 42 -17 126 -44 424 -40 442 5 21 -89 949 -99 977 -12
32 -28 176 -159 1424 -102 965 -128 1226 -162 1590 -22 240 -24 255 -41 255
-8 0 -14 -3 -14 -7z"/>
<path d="M614 4693 c3 -21 20 -157 36 -303 17 -146 37 -321 45 -390 8 -69 55
-514 104 -990 50 -476 97 -926 105 -1000 48 -416 125 -1191 120 -1203 -7 -19
24 -304 36 -325 12 -22 54 -436 47 -462 -4 -15 0 -20 15 -20 12 0 16 4 12 11
-10 17 -55 460 -48 481 7 22 -24 305 -36 326 -5 10 -34 260 -65 557 -67 653
-54 525 -169 1620 -53 495 -105 997 -116 1115 -32 345 -51 533 -55 560 -2 14
-4 33 -4 43 -1 9 -8 17 -17 17 -13 0 -15 -7 -10 -37z"/>
<path d="M675 4698 c25 -149 290 -2649 300 -2838 4 -63 47 -501 96 -972 49
-472 89 -865 89 -873 0 -8 9 -15 20 -15 14 0 20 7 20 23 0 45 -179 1733 -189
1782 -14 67 -8 18 -111 970 -82 764 -133 1264 -175 1715 -9 91 -18 176 -20
190 -2 14 -4 31 -4 38 -1 6 -8 12 -16 12 -12 0 -15 -7 -10 -32z"/>
<path d="M736 4703 c10 -57 86 -739 149 -1343 109 -1040 123 -1182 129 -1265
4 -44 11 -114 16 -155 33 -256 42 -346 45 -440 1 -58 35 -419 76 -802 67 -639
75 -698 91 -698 13 0 18 8 18 28 0 65 -149 1431 -158 1448 -5 11 -17 98 -26
194 -35 354 -45 457 -110 1060 -89 827 -150 1425 -176 1715 -25 281 -26 285
-45 285 -10 0 -13 -8 -9 -27z"/>
<path d="M827 4453 c37 -319 238 -2225 248 -2353 3 -47 11 -114 16 -150 6 -36
10 -96 10 -135 1 -78 26 -332 35 -347 9 -14 34 -246 33 -298 -1 -25 25 -298
57 -608 57 -547 59 -562 80 -562 16 0 20 5 18 22 -2 13 -29 268 -60 568 -30
300 -60 554 -65 565 -10 24 -41 314 -34 325 7 12 -24 301 -35 325 -5 11 -15
85 -23 165 -8 80 -55 530 -105 1000 -107 999 -124 1168 -152 1470 -11 124 -23
236 -25 250 -2 14 -4 28 -4 33 -1 4 -7 7 -14 7 -10 0 -6 -61 20 -277z"/>
<path d="M860 4710 c0 -11 16 -154 35 -318 40 -342 231 -2160 239 -2272 3 -41
12 -131 20 -200 34 -283 48 -429 42 -438 -7 -11 20 -270 34 -332 6 -25 12 -88
15 -140 6 -127 43 -477 55 -515 5 -16 12 -66 15 -110 9 -117 35 -347 41 -367
8 -28 21 -21 18 9 -2 16 -8 89 -15 163 -6 74 -15 158 -20 185 -5 28 -10 82
-10 120 -1 61 -11 163 -59 580 -5 44 -14 143 -20 220 -6 77 -17 163 -25 190
-7 28 -16 84 -19 125 -4 41 -13 136 -21 210 -8 74 -19 176 -24 225 -147 1381
-204 1918 -221 2090 -11 116 -24 253 -29 305 -6 52 -13 131 -16 175 -4 44 -9
88 -11 98 -7 23 -24 22 -24 -3z"/>
<path d="M920 4713 c0 -10 7 -72 15 -138 42 -348 247 -2282 260 -2455 15 -211
39 -454 55 -570 21 -149 28 -214 23 -226 -6 -17 26 -309 37 -339 5 -13 11 -83
14 -156 3 -72 10 -137 16 -144 6 -7 15 -64 20 -126 11 -122 48 -473 56 -527 3
-17 9 -32 15 -32 5 0 7 10 4 23 -2 12 -14 116 -25 232 -11 116 -25 239 -30
275 -6 36 -12 119 -14 185 -2 66 -9 133 -15 148 -6 15 -11 60 -12 100 -1 95
-28 357 -39 377 -4 8 -15 112 -24 230 -9 118 -28 296 -41 395 -28 208 -210
1916 -258 2418 -23 233 -37 342 -45 345 -7 2 -12 -5 -12 -15z"/>
<path d="M984 4683 c54 -439 274 -2537 266 -2541 -7 -3 -5 -31 15 -157 22
-142 35 -265 34 -330 0 -57 20 -240 40 -370 6 -33 15 -107 21 -165 7 -58 16
-136 21 -175 8 -63 30 -275 45 -425 3 -30 9 -89 14 -130 5 -41 14 -131 20
-200 11 -142 19 -190 31 -190 9 0 7 22 -16 215 -20 159 -62 560 -75 710 -6 66
-18 182 -26 257 -9 76 -13 141 -10 146 7 11 -24 303 -35 327 -10 24 -28 192
-34 337 -3 57 -12 132 -21 168 -8 36 -51 412 -95 835 -44 424 -90 876 -104
1005 -21 209 -62 629 -67 703 -1 15 -8 27 -16 27 -11 0 -13 -11 -8 -47z"/>
<path d="M1044 4689 c6 -42 15 -123 51 -439 59 -520 202 -1930 199 -1950 -5
-22 32 -388 56 -565 22 -166 39 -332 45 -435 3 -63 10 -117 15 -120 5 -3 16
-77 25 -165 8 -88 24 -245 35 -350 11 -104 29 -287 40 -405 21 -224 26 -260
41 -260 13 0 11 24 -11 215 -11 94 -27 233 -35 310 -8 77 -20 181 -26 230 -35
299 -46 421 -40 425 7 5 3 41 -28 255 -5 39 -15 138 -21 220 -16 224 -62 649
-70 655 -8 5 -177 1589 -238 2234 -12 128 -21 181 -30 184 -10 3 -12 -6 -8
-39z"/>
<path d="M1105 4693 c42 -315 245 -2271 249 -2409 3 -67 9 -130 14 -140 12
-22 34 -208 37 -309 3 -110 16 -256 27 -305 23 -109 56 -414 57 -530 0 -47 5
-101 11 -120 14 -44 38 -235 45 -365 3 -55 7 -107 10 -115 2 -8 9 -69 15 -135
13 -155 30 -265 41 -265 10 0 4 101 -11 215 -5 39 -14 124 -20 190 -6 66 -13
127 -15 135 -12 39 -26 188 -30 315 -3 83 -11 156 -19 180 -8 22 -20 99 -26
170 -6 72 -15 168 -20 214 -5 46 -7 88 -4 93 8 12 -24 296 -36 323 -10 21 -27
212 -35 379 -3 55 -9 102 -14 105 -8 6 -185 1651 -233 2174 -17 178 -25 237
-35 237 -10 0 -12 -11 -8 -37z"/>
<path d="M1164 4698 c14 -85 68 -580 175 -1613 83 -794 91 -872 116 -1136 8
-87 21 -206 29 -265 21 -158 34 -297 46 -483 5 -91 14 -167 18 -170 8 -5 43
-317 58 -506 17 -219 51 -514 60 -524 2 -2 5 -2 7 0 6 8 -21 343 -38 459 -29
212 -64 552 -59 579 3 15 0 60 -6 101 -7 41 -16 100 -20 130 -10 67 -43 367
-65 590 -22 224 -41 398 -54 500 -22 168 -218 2068 -237 2288 -5 61 -10 82
-21 82 -10 0 -12 -9 -9 -32z"/>
<path d="M1225 4703 c3 -16 12 -91 21 -168 8 -77 22 -197 29 -266 17 -147 185
-1742 215 -2034 11 -110 27 -263 35 -339 14 -129 18 -174 30 -376 8 -139 27
-305 36 -325 10 -22 56 -438 59 -529 0 -33 3 -63 6 -67 6 -10 64 -523 64 -566
0 -18 5 -33 10 -33 7 0 9 13 6 33 -7 40 -44 416 -51 517 -3 41 -12 122 -20
180 -22 156 -52 465 -45 468 6 2 -23 283 -34 342 -10 52 -36 249 -46 360 -6
63 -22 214 -36 335 -81 740 -254 2425 -254 2479 0 9 -7 16 -15 16 -10 0 -13
-8 -10 -27z"/>
<path d="M1290 4708 c0 -13 20 -210 45 -438 102 -921 222 -2085 216 -2092 -7
-8 50 -576 68 -682 28 -165 51 -373 81 -731 7 -77 16 -158 20 -180 16 -74 52
-439 52 -512 -1 -66 0 -73 18 -73 16 0 20 7 20 33 0 18 -4 37 -9 42 -10 10
-47 325 -57 478 -3 48 -12 142 -20 209 -40 333 -55 480 -68 673 -20 285 -65
716 -77 738 -11 19 -269 2461 -269 2540 0 9 -4 17 -10 17 -5 0 -10 -10 -10
-22z"/>
<path d="M1350 4707 c0 -13 13 -140 30 -283 64 -560 234 -2226 246 -2414 2
-41 11 -111 19 -155 7 -44 18 -125 24 -180 25 -219 51 -487 61 -617 6 -75 17
-188 26 -250 29 -215 33 -244 44 -383 6 -77 15 -162 20 -190 8 -44 18 -146 19
-212 1 -13 7 -23 14 -23 11 0 12 16 1 92 -7 51 -17 140 -22 198 -6 58 -17 168
-25 245 -9 77 -21 203 -27 280 -6 77 -18 185 -25 240 -14 98 -43 359 -70 625
-7 74 -14 168 -14 208 -1 41 -3 78 -6 82 -3 5 -14 87 -24 182 -11 96 -22 185
-25 199 -10 41 -246 2312 -246 2363 0 9 -4 16 -10 16 -5 0 -10 -10 -10 -23z"/>
<path d="M1410 4712 c0 -10 13 -135 29 -278 16 -142 29 -299 29 -347 1 -48 6
-103 12 -121 14 -43 16 -61 104 -896 83 -780 85 -806 91 -935 2 -49 11 -137
20 -195 29 -184 34 -232 40 -374 3 -77 8 -143 11 -147 3 -5 14 -91 25 -191 11
-101 24 -212 29 -248 21 -145 46 -401 40 -405 -3 -2 -3 -30 1 -62 3 -32 12
-103 18 -158 40 -353 40 -355 55 -355 15 0 12 105 -8 255 -8 61 -18 155 -21
210 -4 55 -10 104 -15 110 -10 12 -35 235 -50 445 -6 85 -15 182 -20 215 -5
33 -11 109 -15 169 -3 60 -10 116 -14 125 -11 21 -37 272 -52 481 -6 91 -14
169 -18 175 -11 13 -9 -6 -101 868 -44 417 -82 818 -85 890 -3 73 -12 155 -20
182 -11 37 -65 538 -65 598 0 4 -4 7 -10 7 -5 0 -10 -8 -10 -18z"/>
<path d="M1473 4673 c4 -32 14 -116 22 -188 9 -71 16 -157 16 -190 -1 -88 88
-947 100 -968 11 -20 102 -870 119 -1116 6 -90 15 -174 20 -187 5 -13 10 -59
11 -101 2 -102 27 -360 39 -398 5 -16 14 -84 20 -150 6 -66 15 -147 21 -180 5
-33 18 -157 29 -275 29 -311 49 -501 55 -520 3 -9 7 -79 10 -155 2 -76 9 -143
15 -149 5 -5 10 -29 10 -53 0 -28 4 -43 13 -43 9 0 11 28 6 125 -4 69 -11 131
-17 138 -5 6 -12 50 -16 97 -7 97 -37 384 -71 680 -8 69 -16 152 -19 185 -2
33 -9 114 -15 180 -6 66 -15 183 -21 260 -7 77 -18 167 -26 200 -7 33 -16 107
-19 165 -3 58 -9 125 -15 150 -21 100 -130 1133 -120 1140 8 6 -91 963 -101
970 -5 4 -49 389 -49 433 0 4 -5 7 -11 7 -8 0 -10 -17 -6 -57z"/>
<path d="M1530 4722 c0 -4 9 -86 20 -182 11 -96 21 -204 21 -240 0 -87 126
-1286 137 -1308 5 -9 12 -48 16 -87 4 -38 22 -211 40 -384 19 -173 32 -321 29
-328 -7 -18 15 -257 28 -303 17 -63 40 -289 55 -540 3 -52 9 -113 14 -135 5
-22 11 -80 14 -130 4 -49 13 -135 21 -190 27 -186 54 -439 65 -605 18 -267 21
-284 48 -288 19 -3 23 0 19 15 -3 10 -8 52 -12 93 -3 41 -12 113 -20 160 -23
144 -50 407 -70 690 -4 47 -10 103 -15 125 -5 22 -11 87 -15 145 -3 58 -8 112
-10 120 -18 63 -69 505 -60 519 7 12 -27 325 -36 331 -4 3 -22 138 -38 300
-17 162 -34 315 -37 340 -3 25 -7 92 -9 150 -4 131 -123 1278 -135 1305 -5 11
-16 90 -25 175 -25 251 -26 260 -36 260 -5 0 -9 -3 -9 -8z"/>
<path d="M1594 4678 c20 -146 36 -310 36 -368 0 -55 15 -207 56 -597 4 -35 10
-63 14 -63 8 0 29 -184 36 -315 3 -49 9 -112 14 -140 15 -78 40 -333 34 -348
-7 -20 25 -321 36 -327 4 -3 13 -77 20 -165 11 -157 19 -234 40 -388 6 -43 8
-82 5 -87 -7 -11 71 -758 85 -816 5 -23 12 -92 15 -155 3 -62 10 -129 15 -149
14 -49 38 -281 39 -368 0 -39 6 -91 12 -115 7 -23 15 -94 18 -157 6 -109 7
-115 28 -118 21 -3 22 -1 16 50 -3 29 -9 58 -14 64 -5 5 -11 73 -14 149 -3 76
-10 145 -14 154 -15 28 -28 146 -36 336 -3 60 -10 125 -15 145 -5 20 -14 99
-20 176 -14 205 -79 800 -89 827 -5 14 -12 69 -15 123 -7 112 -22 244 -37 322
-6 29 -12 108 -14 175 -3 135 -21 301 -35 332 -10 24 -28 181 -36 315 -2 52
-9 118 -14 145 -16 79 -39 321 -33 343 6 25 -55 621 -67 647 -5 11 -16 92 -25
180 -22 224 -25 245 -37 245 -7 0 -8 -18 -4 -52z"/>
<path d="M1650 4724 c0 -3 9 -81 20 -172 12 -92 21 -194 21 -227 0 -90 39
-477 50 -498 14 -25 49 -360 54 -510 2 -71 8 -134 13 -140 6 -7 20 -102 31
-212 28 -269 30 -287 36 -428 3 -67 12 -142 20 -167 7 -25 19 -99 25 -165 12
-127 13 -144 30 -295 6 -52 12 -133 15 -180 5 -82 20 -225 50 -480 8 -69 15
-150 15 -181 0 -30 6 -100 14 -155 8 -54 18 -144 21 -199 4 -55 11 -108 17
-118 5 -10 11 -75 14 -145 2 -70 9 -143 14 -162 6 -19 13 -82 16 -140 7 -136
10 -150 34 -150 17 0 18 5 14 52 -3 29 -10 67 -15 83 -5 17 -11 83 -14 147 -3
65 -10 130 -16 145 -5 15 -12 63 -15 107 -2 45 -11 146 -20 226 -15 149 -20
191 -53 490 -11 96 -27 240 -36 320 -9 80 -20 174 -25 210 -23 167 -61 557
-57 580 5 26 -1 82 -27 255 -26 174 -57 476 -60 599 -2 65 -8 121 -14 125 -11
7 -62 472 -52 486 8 13 -40 478 -51 485 -4 3 -14 84 -23 180 -20 212 -24 240
-36 240 -6 0 -10 -3 -10 -6z"/>
<path d="M1713 4708 c3 -13 13 -106 21 -208 43 -497 59 -656 67 -666 8 -10 50
-374 79 -679 5 -55 18 -181 29 -280 30 -272 41 -398 46 -529 3 -65 9 -123 14
-130 5 -6 16 -76 25 -156 47 -434 67 -640 75 -775 11 -160 66 -710 75 -735 3
-8 7 -53 10 -100 6 -89 33 -361 42 -417 4 -25 10 -33 25 -33 18 0 19 5 14 47
-11 89 -46 407 -56 503 -10 98 -30 295 -54 530 -8 74 -19 167 -25 205 -6 39
-15 99 -21 135 -5 36 -18 151 -29 255 -11 105 -26 253 -34 330 -8 77 -15 178
-16 225 0 47 -5 103 -11 125 -17 62 -56 394 -79 670 -5 66 -13 136 -16 155
-15 85 -70 645 -64 650 8 6 -41 483 -50 490 -4 3 -15 84 -24 180 -20 206 -24
230 -38 230 -6 0 -8 -10 -5 -22z"/>
<path d="M1773 4708 c4 -12 13 -107 22 -212 29 -356 44 -495 54 -513 9 -18 78
-653 86 -803 3 -41 9 -102 15 -135 15 -88 68 -620 69 -690 1 -33 7 -94 15
-135 8 -41 20 -131 26 -200 6 -69 18 -181 26 -250 7 -69 23 -210 34 -315 10
-104 33 -320 50 -480 29 -283 35 -349 45 -525 5 -86 31 -344 41 -412 4 -29 10
-38 25 -38 10 0 19 3 19 8 -1 20 -51 444 -59 492 -15 94 -125 1102 -136 1250
-3 36 -10 97 -15 135 -15 111 -29 261 -35 378 -3 59 -10 116 -15 125 -5 9 -23
163 -40 342 -17 179 -37 379 -46 445 -36 300 -85 793 -80 820 4 26 -16 216
-43 400 -5 33 -14 112 -20 175 -15 141 -18 160 -32 160 -7 0 -9 -9 -6 -22z"/>
<path d="M1834 4708 c11 -46 25 -206 20 -224 -7 -27 42 -468 55 -491 10 -19
74 -619 67 -631 -3 -7 -1 -33 28 -252 19 -140 75 -685 74 -720 0 -65 23 -315
31 -324 5 -6 16 -85 25 -176 9 -91 25 -244 36 -340 40 -358 48 -445 41 -448
-10 -4 25 -316 39 -342 7 -13 12 -63 12 -119 -1 -53 5 -136 13 -186 8 -49 17
-139 20 -200 4 -60 11 -115 17 -122 5 -7 12 -39 15 -73 3 -33 9 -60 13 -60 7
0 6 37 -4 107 -2 13 0 23 4 23 9 0 3 72 -11 143 -5 26 -14 114 -20 195 -6 81
-15 150 -21 153 -6 4 -12 58 -13 124 -4 142 -25 346 -37 361 -4 6 -19 123 -33
260 -14 137 -35 330 -46 429 -12 99 -21 212 -21 250 0 72 -20 261 -38 350 -13
60 -64 562 -80 770 -6 83 -16 166 -21 185 -13 53 -71 629 -65 647 7 17 -41
479 -51 496 -3 6 -11 60 -17 121 -7 73 -15 111 -24 114 -9 3 -11 -3 -8 -20z"/>
<path d="M1906 4614 c7 -64 11 -121 8 -128 -6 -17 43 -455 56 -491 13 -40 71
-605 64 -632 -5 -19 7 -135 28 -263 21 -129 47 -384 53 -502 3 -70 11 -182 19
-250 8 -68 17 -158 21 -200 4 -43 11 -78 15 -78 10 0 32 -215 36 -354 1 -66 7
-122 12 -125 5 -3 17 -78 26 -166 9 -88 20 -192 25 -232 5 -39 6 -83 4 -96 -7
-37 85 -914 102 -971 8 -26 15 -66 15 -87 0 -22 5 -39 11 -39 6 0 8 11 5 27
-8 44 -11 97 -4 108 7 14 -93 969 -103 975 -5 3 -13 57 -19 120 -6 63 -15 151
-20 196 -6 44 -12 133 -14 198 -2 64 -8 122 -14 129 -11 14 -31 198 -37 352
-5 111 -31 354 -59 540 -16 107 -44 367 -43 400 1 55 -24 320 -32 325 -10 6
-75 625 -67 638 7 12 -40 463 -53 509 -5 18 -13 73 -17 123 -4 59 -11 90 -18
90 -10 0 -10 -27 0 -116z"/>
<path d="M1965 4648 c4 -46 9 -121 10 -168 3 -100 43 -446 55 -475 13 -31 62
-525 66 -664 1 -68 7 -127 12 -130 5 -3 21 -123 36 -266 15 -143 33 -316 41
-385 19 -166 25 -234 31 -365 2 -60 8 -112 13 -115 10 -7 32 -207 37 -347 2
-63 9 -123 14 -133 5 -9 16 -93 25 -186 9 -93 22 -233 30 -312 9 -79 13 -147
11 -150 -4 -8 78 -760 96 -875 6 -42 15 -77 19 -77 20 0 -29 529 -100 1095
-42 335 -52 425 -56 539 -3 66 -9 122 -13 125 -10 7 -31 211 -37 368 -3 58 -9
111 -14 117 -4 6 -16 90 -25 186 -9 96 -23 227 -31 290 -24 193 -45 419 -49
539 -2 62 -8 116 -14 120 -9 6 -75 599 -70 636 6 44 -37 460 -51 496 -5 14
-12 68 -16 122 -4 54 -12 97 -17 97 -7 0 -8 -29 -3 -82z"/>
<path d="M2018 4693 c-6 -48 58 -656 71 -680 13 -24 63 -517 67 -666 1 -65 7
-124 12 -130 14 -17 31 -166 48 -421 7 -121 18 -222 23 -225 11 -8 33 -217 36
-341 2 -90 14 -191 36 -290 5 -25 12 -105 14 -179 3 -73 9 -141 14 -150 11
-20 40 -286 50 -467 12 -201 41 -486 51 -505 15 -29 23 -104 35 -339 3 -41 9
-118 14 -170 6 -52 11 -103 11 -112 0 -11 8 -18 20 -18 14 0 20 7 20 23 0 31
-27 259 -40 337 -31 190 -38 259 -28 275 3 6 -1 60 -8 120 -7 61 -19 166 -25
235 -6 69 -14 130 -19 135 -4 6 -10 37 -14 70 -3 33 -12 119 -20 190 -8 72
-18 184 -21 249 -3 66 -10 124 -15 131 -5 7 -17 117 -25 245 -8 129 -19 236
-23 239 -11 8 -42 298 -35 332 4 23 0 56 -27 234 -21 135 -40 324 -43 434 -2
68 -8 126 -14 129 -11 8 -76 617 -68 647 3 11 -11 157 -30 325 -39 345 -44
380 -55 380 -4 0 -10 -17 -12 -37z"/>
<path d="M2084 4613 c10 -169 56 -586 64 -593 7 -5 71 -599 69 -645 -1 -51 25
-310 32 -315 4 -3 11 -39 15 -80 4 -41 22 -217 40 -390 18 -173 33 -328 33
-345 0 -67 15 -253 24 -290 15 -61 47 -340 39 -343 -8 -3 8 -152 20 -177 6
-11 12 -60 15 -110 8 -155 15 -246 30 -370 8 -66 29 -262 46 -435 17 -173 35
-346 41 -385 5 -38 12 -85 14 -102 3 -21 11 -33 20 -33 13 0 15 8 10 38 -3 20
-8 73 -11 117 -7 108 -64 645 -69 654 -3 4 -10 72 -16 151 -11 151 -24 254
-41 330 -5 25 -12 106 -14 179 -2 74 -9 137 -14 140 -11 7 -32 199 -36 337 -2
95 -14 195 -35 294 -6 25 -21 158 -35 295 -14 138 -32 307 -40 376 -8 70 -12
142 -9 160 3 19 -2 81 -10 138 -9 58 -16 117 -16 133 0 16 -4 36 -9 46 -12 21
-74 628 -66 642 6 9 -27 352 -45 465 -5 33 -14 99 -21 148 -17 131 -33 111
-25 -30z"/>
<path d="M2144 4618 c10 -168 56 -582 65 -588 10 -7 113 -1002 117 -1139 1
-63 7 -135 13 -160 20 -94 33 -189 37 -281 7 -166 50 -585 73 -720 6 -30 17
-145 26 -255 26 -318 62 -647 74 -679 6 -15 12 -65 12 -110 1 -109 27 -357 39
-371 6 -7 12 -68 14 -136 2 -68 5 -136 5 -151 1 -22 6 -28 24 -28 23 0 23 0
14 83 -5 45 -13 85 -18 88 -5 3 -11 61 -13 130 -5 150 -25 340 -37 355 -5 6
-11 67 -14 135 -5 133 -46 510 -95 884 -6 44 -9 87 -7 97 8 28 -58 617 -73
658 -5 14 -12 66 -15 116 -13 229 -15 272 -21 313 -3 24 -9 51 -14 60 -12 22
-122 1093 -115 1113 9 22 -30 385 -66 621 -18 118 -33 97 -25 -35z"/>
<path d="M2207 4653 c4 -43 7 -91 7 -108 -2 -57 46 -495 55 -513 12 -21 74
-619 66 -632 -3 -5 1 -71 9 -147 9 -76 22 -210 31 -298 15 -153 25 -234 45
-355 5 -30 16 -148 25 -261 8 -113 24 -284 35 -380 12 -96 29 -247 39 -335 10
-89 21 -166 25 -172 3 -6 9 -77 11 -158 3 -83 10 -153 16 -160 6 -7 12 -64 15
-126 4 -127 12 -187 26 -205 5 -6 9 -51 10 -100 0 -102 23 -342 38 -393 8 -29
17 -158 19 -282 1 -23 5 -28 27 -28 19 0 24 4 20 18 -2 9 -7 49 -11 87 -4 39
-11 77 -15 85 -5 9 -9 47 -11 85 -3 121 -31 380 -41 386 -5 3 -11 73 -14 154
-2 84 -9 154 -15 161 -6 7 -12 62 -15 121 -4 122 -12 190 -25 214 -4 9 -11 63
-14 120 -3 57 -9 145 -15 194 -5 50 -12 126 -15 170 -7 108 -32 345 -51 480
-23 171 -33 254 -39 335 -12 177 -17 232 -31 350 -7 69 -21 195 -30 280 -9 85
-19 157 -23 160 -10 7 -74 628 -66 640 8 12 -31 393 -50 485 -7 39 -17 100
-20 138 -4 37 -11 67 -16 67 -6 0 -7 -29 -2 -77z"/>
<path d="M2265 4663 c4 -38 9 -102 10 -143 4 -95 31 -358 49 -475 8 -49 19
-121 25 -160 19 -126 52 -467 47 -482 -5 -12 42 -490 84 -863 6 -52 35 -333
65 -625 56 -545 66 -633 90 -770 18 -101 43 -365 50 -515 3 -63 18 -230 33
-370 26 -246 28 -255 50 -258 19 -3 21 0 17 25 -3 15 -19 163 -36 328 -17 165
-34 305 -38 310 -5 6 -11 39 -14 75 -4 36 -13 124 -21 195 -8 72 -17 184 -20
251 -5 104 -83 881 -131 1304 -9 74 -34 310 -56 525 -22 214 -43 392 -48 395
-10 7 -69 603 -62 637 3 19 -37 396 -54 498 -8 50 -17 111 -20 138 -10 77 -29
58 -20 -20z"/>
<path d="M2324 4697 c3 -18 8 -84 11 -147 5 -117 34 -395 60 -575 36 -242 85
-702 79 -735 -3 -14 13 -198 36 -410 22 -212 59 -558 81 -770 66 -631 77 -739
83 -748 2 -4 11 -61 20 -127 14 -110 18 -163 30 -370 5 -84 74 -760 81 -792 4
-15 13 -23 25 -23 17 0 19 5 14 43 -3 23 -23 206 -45 407 -38 357 -49 444 -69
565 -12 71 -20 164 -25 295 -2 52 -24 289 -50 525 -25 237 -68 651 -96 920
-28 270 -55 492 -59 495 -4 3 -15 79 -24 170 -10 91 -23 224 -31 295 -7 72
-16 182 -20 245 -8 153 -41 484 -60 590 -8 47 -18 106 -21 133 -3 26 -10 47
-16 47 -6 0 -8 -13 -4 -33z"/>
<path d="M2384 4694 c4 -19 9 -82 11 -139 6 -145 54 -580 75 -680 5 -22 11
-76 15 -120 4 -44 13 -135 21 -203 8 -67 12 -127 9 -132 -4 -6 5 -115 19 -243
14 -127 53 -495 86 -817 34 -322 63 -594 65 -605 3 -11 10 -76 16 -145 6 -69
14 -129 19 -135 9 -12 16 -82 30 -295 10 -144 103 -1074 115 -1147 5 -25 11
-33 26 -33 18 0 20 5 15 38 -3 20 -26 235 -51 477 -42 400 -55 515 -86 730
-20 143 -28 226 -23 240 3 8 -2 81 -11 162 -17 160 -120 1140 -160 1523 -13
129 -28 249 -34 265 -10 31 -42 326 -47 425 -7 170 -48 581 -69 695 -8 44 -17
101 -20 128 -4 26 -11 47 -17 47 -6 0 -8 -13 -4 -36z"/>
<path d="M2444 4704 c3 -16 8 -78 11 -139 5 -107 56 -594 74 -705 5 -30 17
-143 26 -250 18 -216 30 -337 46 -450 22 -167 30 -241 39 -378 5 -79 14 -160
20 -180 5 -21 12 -80 14 -132 7 -145 95 -972 106 -995 6 -11 12 -69 14 -130 5
-138 26 -338 36 -345 9 -5 34 -250 50 -480 11 -152 37 -432 46 -487 4 -24 10
-33 24 -33 11 0 20 2 20 4 0 14 -42 375 -50 436 -39 272 -70 549 -63 566 7 19
-15 241 -33 327 -8 38 -14 94 -15 125 0 77 -86 926 -99 982 -6 25 -15 107 -20
182 -5 76 -13 154 -19 175 -9 34 -33 283 -47 483 -3 41 -9 98 -14 125 -5 28
-17 118 -25 200 -9 83 -18 157 -20 165 -3 8 -7 62 -10 120 -6 143 -52 577 -70
675 -8 44 -16 98 -18 119 -1 23 -8 41 -16 44 -10 3 -12 -3 -7 -24z"/>
<path d="M2506 4693 c23 -188 31 -286 27 -301 -4 -16 10 -160 52 -532 8 -74
28 -270 45 -435 17 -165 32 -309 35 -320 2 -11 11 -78 19 -150 14 -124 20
-185 31 -320 20 -252 99 -964 108 -980 6 -11 12 -69 14 -130 2 -60 12 -171 24
-245 37 -248 59 -458 64 -625 1 -55 8 -118 13 -140 18 -66 33 -203 37 -328 6
-155 12 -187 37 -187 18 0 19 5 13 68 -4 37 -12 87 -17 112 -17 81 -27 172
-37 338 -5 90 -14 169 -19 175 -5 7 -12 41 -15 77 -4 36 -13 124 -21 195 -8
72 -16 150 -17 175 -4 134 -21 328 -29 350 -14 34 -28 158 -20 167 7 8 -79
836 -118 1143 -11 85 -23 198 -27 250 -8 115 -27 318 -60 620 -13 124 -36 337
-50 474 -15 137 -30 257 -34 265 -5 9 -14 85 -22 169 -9 106 -16 152 -25 152
-8 0 -11 -12 -8 -37z"/>
<path d="M2563 4723 c3 -5 10 -84 17 -178 11 -155 72 -765 135 -1350 14 -126
59 -556 100 -955 42 -399 80 -738 85 -755 12 -38 30 -180 35 -270 11 -198 18
-291 31 -400 8 -66 19 -167 24 -225 6 -58 15 -136 21 -175 26 -172 39 -284 41
-337 2 -56 11 -88 22 -77 3 3 -1 69 -9 148 -8 78 -17 190 -20 249 -2 59 -9
130 -14 157 -6 28 -13 91 -16 140 -7 119 -35 349 -63 524 -6 35 -14 122 -17
195 -5 105 -72 771 -165 1636 -6 52 -37 358 -71 680 -33 322 -71 663 -85 758
-13 95 -24 188 -24 207 0 25 -4 35 -16 35 -8 0 -13 -3 -11 -7z"/>
<path d="M2631 4668 c4 -35 10 -112 14 -173 9 -145 282 -2765 295 -2830 5 -27
12 -90 15 -140 5 -78 45 -465 103 -990 10 -82 20 -155 24 -161 7 -10 28 -261
28 -336 0 -31 4 -38 20 -38 23 0 25 15 11 87 -25 125 -33 188 -36 270 -3 95
-6 124 -65 713 -22 217 -44 415 -50 440 -5 25 -12 86 -15 135 -7 125 -272
2649 -289 2760 -8 50 -20 143 -27 208 -8 72 -17 117 -24 117 -8 0 -9 -19 -4
-62z"/>
<path d="M2690 4693 c1 -21 7 -89 14 -152 8 -63 12 -120 10 -126 -3 -7 11
-162 30 -346 20 -184 85 -806 146 -1384 125 -1196 138 -1314 150 -1336 5 -9
14 -87 20 -174 6 -87 16 -190 21 -229 21 -165 57 -525 58 -576 0 -30 7 -120
16 -200 8 -80 15 -151 15 -157 0 -7 9 -13 20 -13 14 0 20 7 20 23 0 35 -38
350 -44 367 -6 18 -53 447 -55 505 -1 41 -9 102 -36 305 -9 63 -14 129 -13
145 4 43 2 66 -162 1635 -83 784 -154 1441 -159 1460 -5 19 -15 92 -22 163 -6
70 -16 127 -20 127 -5 0 -9 -17 -9 -37z"/>
<path d="M2750 4703 c0 -16 7 -84 15 -152 8 -68 12 -128 9 -132 -8 -13 197
-1934 208 -1940 5 -3 11 -62 13 -130 3 -117 68 -775 81 -829 9 -36 22 -136 39
-295 8 -77 19 -174 24 -215 19 -136 42 -387 45 -487 2 -54 14 -194 27 -310 20
-192 24 -213 41 -213 10 0 18 7 18 18 1 44 -54 528 -60 532 -4 3 -19 122 -34
265 -15 143 -33 319 -41 390 -8 72 -17 184 -21 250 -9 186 -83 868 -94 875 -6
3 -12 67 -14 141 -4 133 -191 1943 -203 1962 -5 9 -32 238 -33 280 0 9 -4 17
-10 17 -5 0 -10 -12 -10 -27z"/>
<path d="M2810 4707 c0 -12 9 -101 20 -197 11 -96 20 -200 20 -230 0 -93 181
-1785 192 -1791 5 -3 11 -66 14 -140 4 -129 46 -540 78 -759 28 -185 65 -541
71 -670 3 -69 22 -276 41 -460 19 -184 38 -363 41 -397 5 -53 9 -63 24 -63 25
0 25 -4 -16 385 -20 182 -38 357 -41 390 -3 33 -10 74 -15 90 -9 32 -19 109
-49 395 -26 251 -30 300 -35 405 -7 151 -64 668 -75 675 -6 3 -11 46 -11 96
-2 108 -176 1811 -189 1839 -4 11 -16 97 -25 190 -22 236 -26 265 -36 265 -5
0 -9 -10 -9 -23z"/>
<path d="M2870 4711 c0 -11 9 -98 20 -193 11 -95 21 -198 21 -228 0 -94 138
-1412 154 -1465 17 -59 59 -460 51 -482 -7 -18 51 -596 64 -638 9 -30 36 -280
39 -365 3 -64 21 -251 82 -832 52 -493 54 -508 74 -508 18 0 21 5 18 27 -2 16
-31 284 -64 598 -61 585 -66 628 -94 825 -9 63 -18 162 -21 220 -6 144 -61
655 -73 677 -12 22 -55 448 -48 467 8 19 -140 1435 -152 1461 -5 11 -17 101
-26 200 -9 99 -18 197 -21 218 -6 38 -24 52 -24 18z"/>
<path d="M2930 4715 c0 -8 9 -95 20 -193 24 -215 29 -270 36 -390 9 -160 131
-1296 142 -1322 13 -31 56 -446 48 -466 -3 -8 6 -116 20 -242 45 -412 52 -476
59 -557 3 -44 41 -408 83 -810 76 -716 78 -730 99 -733 20 -3 21 0 17 30 -3
18 -41 373 -84 788 -44 415 -86 818 -95 895 -8 77 -26 249 -40 382 -13 133
-29 250 -34 260 -12 22 -55 447 -48 467 5 13 -122 1228 -143 1366 -5 36 -19
153 -30 260 -26 257 -30 280 -41 280 -5 0 -9 -7 -9 -15z"/>
<path d="M2990 4717 c0 -7 13 -130 30 -274 16 -143 29 -285 29 -314 -1 -75
111 -1133 121 -1139 10 -7 73 -617 66 -636 -7 -17 75 -807 84 -814 8 -6 49
-412 65 -650 3 -41 15 -156 25 -255 11 -99 29 -272 40 -385 25 -249 25 -250
50 -250 18 0 20 5 15 38 -8 57 -22 188 -55 512 -16 162 -32 309 -36 325 -10
50 -43 340 -59 515 -53 579 -88 912 -100 955 -17 59 -77 628 -69 649 8 20
-105 1106 -116 1128 -5 9 -21 140 -35 290 -15 150 -28 283 -31 296 -5 23 -24
31 -24 9z"/>
<path d="M3050 4721 c0 -5 16 -151 36 -323 19 -172 37 -358 39 -413 4 -121 30
-375 51 -505 8 -52 19 -124 25 -160 20 -130 100 -936 95 -955 -6 -21 33 -393
60 -575 33 -232 54 -423 60 -570 2 -58 8 -127 14 -155 5 -27 17 -135 25 -240
9 -104 20 -224 25 -265 5 -41 12 -104 15 -140 11 -135 36 -376 41 -397 3 -15
12 -23 25 -23 18 0 20 4 14 42 -3 24 -15 129 -26 233 -24 228 -46 423 -59 525
-5 41 -14 129 -20 195 -6 66 -16 149 -21 185 -34 224 -46 340 -64 595 -17 257
-50 557 -65 600 -15 45 -119 1075 -111 1113 4 24 -39 425 -51 467 -6 22 -27
204 -47 404 -25 250 -40 366 -49 369 -7 2 -12 -1 -12 -7z"/>
<path d="M3110 4723 c0 -5 11 -107 25 -228 86 -761 222 -2061 230 -2200 10
-189 24 -330 55 -547 6 -40 17 -131 25 -203 8 -71 19 -170 24 -220 14 -126 39
-393 40 -435 0 -19 7 -91 15 -160 8 -69 27 -249 41 -400 31 -333 31 -330 56
-330 18 0 20 5 14 42 -3 24 -14 133 -25 243 -11 110 -27 247 -35 305 -7 58
-17 146 -20 195 -4 50 -11 106 -16 125 -8 32 -19 127 -49 420 -6 58 -17 167
-25 243 -8 75 -14 140 -13 145 2 8 -8 136 -23 287 -8 91 -23 200 -49 360 -6
33 -35 299 -65 590 -30 292 -73 701 -94 910 -22 209 -50 489 -62 623 -17 179
-27 242 -36 242 -7 0 -13 -3 -13 -7z"/>
<path d="M3174 4688 c32 -227 267 -2464 260 -2482 -7 -18 24 -314 36 -335 4
-9 11 -56 15 -106 3 -49 13 -142 20 -205 30 -239 55 -499 60 -605 5 -93 73
-782 90 -912 5 -35 10 -43 27 -43 18 0 20 4 14 42 -3 24 -24 225 -47 448 -22
223 -45 414 -49 425 -5 11 -11 43 -13 70 -7 70 -35 323 -47 425 -5 47 -12 121
-15 165 -3 44 -10 107 -15 140 -5 33 -10 90 -11 125 -2 96 -30 364 -38 370 -9
6 -220 2013 -257 2438 -5 63 -10 82 -21 82 -12 0 -14 -9 -9 -42z"/>
<path d="M3230 4725 c0 -3 9 -81 20 -173 82 -691 240 -2219 245 -2364 2 -70 8
-136 14 -146 6 -11 13 -69 16 -128 6 -138 43 -479 55 -519 5 -16 10 -59 11
-95 2 -59 111 -1159 125 -1258 5 -32 11 -42 25 -42 11 0 19 4 19 9 0 38 -132
1235 -140 1266 -5 22 -10 72 -10 110 -1 79 -44 497 -53 512 -4 6 -11 79 -17
163 -5 85 -14 156 -18 159 -5 3 -30 209 -56 456 -93 883 -126 1205 -161 1565
-19 201 -38 393 -41 428 -4 43 -11 62 -20 62 -8 0 -14 -2 -14 -5z"/>
<path d="M3294 4693 c26 -164 267 -2454 261 -2475 -7 -21 22 -300 35 -343 5
-16 12 -73 15 -125 10 -164 25 -323 35 -360 5 -19 11 -80 14 -135 3 -55 32
-357 65 -671 34 -315 61 -574 61 -578 0 -3 9 -6 20 -6 11 0 20 6 20 13 0 37
-132 1239 -140 1277 -5 25 -9 74 -10 110 0 66 -36 365 -45 380 -3 5 -5 41 -6
82 -1 96 -27 345 -39 366 -11 20 -116 1019 -255 2440 -5 46 -10 62 -22 62 -11
0 -13 -8 -9 -37z"/>
<path d="M3355 4693 c6 -41 63 -552 119 -1073 98 -896 138 -1297 141 -1412 2
-70 9 -136 14 -147 6 -11 13 -75 16 -143 3 -68 10 -139 15 -158 11 -40 38
-292 38 -360 1 -25 8 -108 17 -185 19 -168 125 -1188 125 -1204 0 -6 9 -11 20
-11 11 0 20 7 20 16 0 22 -97 946 -114 1089 -8 66 -18 161 -22 210 -3 50 -10
95 -14 100 -10 13 -30 207 -36 352 -2 64 -9 124 -14 133 -5 10 -14 87 -19 171
-6 84 -14 155 -19 158 -9 6 -97 829 -197 1841 -71 718 -64 660 -81 660 -11 0
-13 -9 -9 -37z"/>
<path d="M3415 4698 c6 -37 65 -572 125 -1128 95 -877 140 -1326 135 -1339 -7
-19 25 -313 35 -326 5 -5 11 -53 15 -105 4 -52 15 -171 26 -265 11 -93 22
-223 25 -289 2 -65 10 -128 15 -139 6 -11 15 -84 20 -164 5 -79 14 -164 19
-188 5 -24 10 -72 11 -107 0 -35 14 -188 30 -342 16 -153 29 -285 29 -292 0
-8 9 -14 20 -14 14 0 20 7 20 23 0 43 -59 573 -69 618 -5 24 -12 87 -16 139
-3 52 -12 131 -20 175 -7 44 -14 118 -14 165 0 47 -7 114 -15 150 -8 36 -22
148 -30 250 -9 102 -21 205 -27 230 -5 25 -10 79 -11 120 -1 98 -28 363 -37
370 -4 3 -24 167 -45 365 -72 689 -115 1113 -161 1575 -57 578 -53 550 -71
550 -11 0 -14 -8 -9 -32z"/>
<path d="M3475 4703 c3 -16 9 -71 15 -123 5 -52 14 -133 20 -180 19 -173 141
-1299 185 -1718 25 -238 43 -437 40 -442 -8 -12 54 -619 65 -645 9 -20 28
-204 35 -339 3 -39 13 -159 25 -266 11 -107 22 -222 25 -255 4 -33 10 -78 15
-100 6 -22 14 -101 20 -175 5 -74 17 -208 26 -298 15 -144 19 -162 36 -162 12
0 18 7 18 24 0 40 -40 407 -50 461 -5 28 -12 93 -15 145 -6 104 -57 564 -80
730 -8 58 -17 150 -20 205 -8 148 -64 662 -74 683 -5 9 -21 134 -36 277 -14
143 -49 476 -76 740 -61 593 -125 1235 -134 1335 -9 105 -15 130 -31 130 -9 0
-12 -8 -9 -27z"/>
<path d="M3535 4708 c2 -13 14 -106 25 -208 10 -102 40 -372 65 -600 94 -856
174 -1637 169 -1655 -2 -11 7 -121 21 -245 34 -300 53 -471 59 -550 16 -195
48 -478 56 -495 9 -20 41 -295 37 -325 -2 -18 6 -111 35 -407 21 -214 22 -223
43 -223 20 0 21 3 13 73 -21 198 -52 457 -59 502 -21 140 -39 302 -43 410 -3
66 -14 199 -25 295 -32 284 -49 440 -76 705 -14 138 -29 264 -35 280 -6 17
-35 273 -66 570 -30 297 -66 644 -79 770 -13 127 -42 421 -65 655 -22 234 -43
435 -46 448 -2 12 -11 22 -19 22 -11 0 -14 -7 -10 -22z"/>
<path d="M3627 4438 c43 -386 143 -1316 193 -1798 22 -212 43 -414 47 -450 3
-36 6 -83 5 -105 -2 -41 25 -313 32 -324 2 -3 9 -75 16 -160 6 -85 16 -161 20
-170 5 -9 19 -113 30 -231 12 -118 30 -296 40 -395 11 -99 22 -216 25 -260 3
-44 15 -185 27 -312 21 -228 22 -233 44 -233 20 0 22 4 18 32 -3 18 -16 132
-30 253 -13 121 -29 249 -34 285 -5 36 -16 130 -24 210 -9 80 -25 224 -36 320
-11 96 -22 222 -25 280 -3 58 -12 164 -20 235 -8 72 -22 204 -30 295 -9 91
-20 174 -25 185 -5 11 -34 261 -64 555 -116 1115 -138 1325 -174 1695 -31 314
-40 380 -53 383 -13 2 -11 -36 18 -290z"/>
<path d="M3677 4528 c105 -936 254 -2353 254 -2423 0 -33 5 -89 10 -125 5 -36
16 -132 24 -215 15 -148 40 -374 69 -630 19 -167 61 -588 82 -825 29 -321 26
-305 51 -308 20 -3 22 0 18 25 -2 15 -9 78 -15 138 -12 112 -36 316 -45 370
-3 17 -14 116 -25 220 -11 105 -26 251 -34 325 -8 74 -17 171 -21 215 -3 44
-12 141 -20 215 -33 297 -44 409 -51 494 -3 49 -10 97 -15 105 -4 9 -33 259
-64 556 -31 297 -65 626 -76 730 -50 485 -90 880 -110 1098 -19 200 -25 237
-39 237 -14 0 -13 -21 7 -202z"/>
<path d="M3751 4398 c39 -338 139 -1269 205 -1898 19 -190 35 -367 35 -395 0
-27 11 -138 24 -245 13 -107 29 -251 35 -320 21 -234 72 -724 75 -730 9 -15
27 -190 60 -575 19 -230 20 -235 45 -235 18 0 20 5 15 38 -3 20 -12 95 -21
167 -9 72 -20 159 -25 195 -4 36 -15 148 -24 250 -19 207 -81 800 -95 900 -4
36 -15 144 -24 240 -9 96 -19 206 -22 245 -4 38 -10 76 -15 85 -4 8 -22 152
-39 320 -17 168 -51 496 -76 730 -44 419 -121 1183 -145 1433 -10 108 -14 127
-29 127 -15 0 -13 -29 21 -332z"/>
<path d="M3776 4713 c3 -16 38 -330 114 -1018 21 -188 53 -498 120 -1140 22
-209 42 -425 45 -480 3 -55 14 -179 26 -275 11 -96 25 -222 30 -280 5 -58 16
-154 24 -215 8 -60 19 -157 24 -215 6 -58 15 -145 21 -195 11 -92 37 -330 45
-420 3 -27 8 -86 10 -130 6 -91 22 -264 31 -313 4 -24 10 -32 25 -32 18 0 20
5 15 38 -3 20 -10 87 -16 147 -6 61 -15 130 -20 155 -5 25 -16 115 -25 200 -9
85 -22 212 -30 281 -8 69 -15 146 -15 170 0 24 -6 87 -14 139 -8 52 -17 144
-20 204 -3 59 -10 125 -16 145 -5 20 -12 79 -14 131 -6 108 -32 353 -47 450
-13 82 -103 909 -163 1490 -62 600 -116 1145 -116 1164 0 9 -8 16 -19 16 -13
0 -18 -6 -15 -17z"/>
<path d="M3877 4358 c88 -773 250 -2332 252 -2433 1 -27 13 -144 26 -260 39
-333 44 -374 56 -475 5 -52 14 -131 19 -175 5 -44 18 -181 30 -305 11 -124 27
-279 35 -345 8 -66 17 -160 20 -210 8 -131 13 -155 37 -155 18 0 19 5 13 57
-3 32 -10 81 -15 108 -6 28 -17 124 -25 215 -8 91 -24 237 -35 325 -18 151
-30 263 -65 620 -28 286 -64 631 -85 795 -25 209 -179 1670 -220 2095 -17 176
-35 358 -40 405 -6 47 -10 91 -10 98 0 6 -8 12 -18 12 -16 0 -15 -24 25 -372z"/>
<path d="M3906 4628 c78 -645 285 -2619 299 -2843 7 -112 34 -358 55 -490 5
-33 12 -94 14 -135 8 -132 37 -423 46 -475 5 -27 14 -102 20 -165 6 -63 15
-137 20 -165 6 -27 12 -104 15 -170 7 -158 12 -185 37 -185 19 0 19 5 13 63
-3 34 -13 94 -21 134 -8 40 -14 91 -14 115 0 24 -7 99 -15 168 -8 69 -15 143
-16 165 -2 51 -35 366 -49 465 -10 72 -16 132 -40 400 -6 69 -15 157 -20 195
-55 427 -209 1878 -290 2730 -27 290 -28 295 -49 295 -16 0 -16 -8 -5 -102z"/>
<path d="M3960 4703 c0 -16 7 -82 15 -148 67 -548 269 -2476 290 -2770 3 -38
23 -236 45 -440 21 -203 44 -422 50 -485 6 -63 15 -137 20 -165 5 -27 14 -115
20 -195 6 -80 15 -147 20 -150 5 -3 14 -83 21 -178 11 -160 14 -172 32 -172
16 0 18 5 13 33 -3 17 -10 67 -16 110 -5 43 -12 82 -15 87 -3 5 -6 46 -6 92 0
46 -6 139 -14 208 -8 69 -26 240 -40 380 -28 279 -90 854 -105 965 -44 350
-239 2214 -286 2740 -9 111 -9 110 -27 113 -13 3 -17 -4 -17 -25z"/>
<path d="M4020 4702 c0 -15 7 -81 15 -147 53 -432 216 -1963 270 -2545 20
-212 47 -488 61 -615 15 -126 30 -270 35 -320 24 -242 41 -383 49 -415 5 -19
11 -75 15 -125 3 -49 12 -135 20 -190 7 -55 17 -155 21 -222 6 -114 8 -123 27
-123 17 0 19 5 13 32 -3 17 -11 72 -16 121 -6 49 -12 92 -14 96 -2 3 -7 48
-10 99 -3 51 -13 144 -21 208 -8 64 -13 119 -11 123 5 7 -13 206 -33 371 -6
47 -22 200 -36 340 -14 140 -35 329 -46 420 -62 528 -165 1489 -234 2195 -19
198 -42 426 -50 508 -8 81 -15 163 -15 182 0 28 -4 35 -20 35 -15 0 -20 -7
-20 -28z"/>
<path d="M4080 4707 c0 -12 7 -76 15 -142 44 -359 214 -1957 255 -2395 72
-766 110 -1133 120 -1152 5 -9 12 -65 15 -125 7 -155 24 -309 40 -373 7 -30
16 -106 20 -168 3 -62 10 -136 16 -165 5 -28 10 -82 11 -119 0 -61 2 -68 20
-68 17 0 19 5 14 32 -3 18 -11 76 -16 128 -6 52 -17 147 -25 210 -9 63 -15
133 -14 155 3 57 -22 307 -32 326 -5 9 -11 66 -14 125 -7 135 -68 721 -135
1279 -40 339 -223 2117 -246 2393 -6 71 -9 82 -25 82 -13 0 -19 -7 -19 -23z"/>
<path d="M4140 4713 c0 -10 5 -56 10 -103 51 -430 207 -1886 245 -2280 8 -91
20 -210 25 -265 5 -55 14 -149 20 -210 6 -60 31 -303 56 -540 24 -236 51 -497
59 -580 9 -82 20 -166 25 -186 6 -20 14 -92 20 -160 30 -369 33 -389 57 -389
17 0 16 14 -13 240 -26 200 -32 264 -33 317 0 28 -7 116 -16 195 -8 79 -33
316 -55 528 -38 361 -67 628 -89 815 -38 318 -56 476 -91 815 -40 373 -161
1586 -175 1743 -6 66 -10 77 -26 77 -11 0 -19 -7 -19 -17z"/>
<path d="M4200 4718 c0 -7 16 -152 35 -323 83 -730 185 -1697 240 -2275 20
-206 56 -566 81 -800 24 -234 51 -495 60 -580 8 -85 19 -169 24 -186 12 -35
28 -195 35 -329 8 -154 21 -225 42 -225 13 0 14 12 9 87 -4 49 -11 102 -16
118 -12 43 -43 314 -37 330 3 7 -1 68 -9 136 -7 68 -32 302 -54 519 -22 217
-52 492 -65 610 -13 118 -42 375 -64 570 -48 420 -134 1251 -191 1825 -22 226
-43 438 -46 473 -5 52 -9 62 -25 62 -11 0 -19 -6 -19 -12z"/>
<path d="M4264 4673 c41 -343 196 -1785 231 -2138 8 -88 17 -180 19 -205 3
-25 12 -124 22 -220 27 -290 163 -1548 178 -1650 l13 -95 2 134 c1 131 -81
959 -184 1847 -43 372 -119 1102 -185 1767 -27 276 -52 528 -56 560 -5 49 -9
57 -26 57 -19 0 -20 -4 -14 -57z"/>
<path d="M4320 4723 c0 -5 20 -190 45 -413 72 -645 160 -1467 190 -1775 42
-435 82 -837 129 -1275 l44 -405 1 179 c1 179 -26 478 -104 1151 -53 458 -265
2490 -265 2542 0 2 -9 3 -20 3 -11 0 -20 -3 -20 -7z"/>
<path d="M4380 4724 c0 -3 25 -227 55 -498 68 -618 137 -1264 170 -1601 38
-391 84 -840 104 -1025 l19 -165 1 182 c1 162 -6 246 -69 810 -38 345 -81 736
-94 868 -42 405 -84 828 -111 1100 -33 337 -32 335 -56 335 -10 0 -19 -3 -19
-6z"/>
<path d="M4445 4683 c31 -253 166 -1520 235 -2193 l48 -475 1 168 c1 140 -7
245 -49 620 -27 249 -81 769 -120 1157 -38 388 -72 720 -75 738 -4 23 -11 32
-26 32 -18 0 -19 -5 -14 -47z"/>
<path d="M4506 4688 c3 -24 18 -164 34 -313 16 -148 52 -479 79 -735 28 -256
64 -591 80 -745 l29 -280 1 155 c0 85 -6 212 -14 281 -11 97 -130 1264 -161
1579 -8 88 -13 100 -34 100 -17 0 -19 -5 -14 -42z"/>
<path d="M4565 4693 c3 -21 35 -310 70 -643 36 -333 72 -657 80 -720 l14 -115
-3 185 c-2 136 -17 317 -55 685 -28 275 -55 532 -59 570 -6 63 -9 70 -30 73
-21 3 -22 1 -17 -35z"/>
<path d="M4626 4698 c2 -18 25 -224 49 -458 25 -234 47 -434 49 -445 2 -11 4
59 4 155 1 132 -7 248 -31 475 -31 290 -33 300 -54 303 -20 3 -21 0 -17 -30z"/>
<path d="M4697 4608 c31 -290 30 -288 32 -75 l1 197 -23 0 -23 0 13 -122z"/>
<path d="M1 4297 c0 -75 7 -196 19 -290 36 -298 79 -695 204 -1892 118 -1131
143 -1384 166 -1660 5 -66 17 -190 25 -275 8 -85 15 -161 15 -167 0 -7 9 -13
20 -13 15 0 20 7 20 26 0 31 -58 527 -66 567 -9 45 -294 2726 -334 3142 -45
475 -50 533 -59 610 l-8 80 -2 -128z"/>
<path d="M1 3715 c0 -38 6 -131 14 -205 66 -582 253 -2410 254 -2471 0 -42 7
-107 15 -145 17 -83 39 -287 51 -489 5 -82 20 -245 31 -347 5 -48 10 -58 25
-58 13 0 19 7 19 23 0 20 -42 359 -60 487 -16 115 -38 348 -39 410 0 36 -7 97
-16 135 -13 61 -187 1682 -260 2430 -30 308 -32 321 -34 230z"/>
<path d="M6 3090 c2 -52 64 -671 138 -1375 74 -704 140 -1359 146 -1455 14
-236 18 -260 41 -260 13 0 19 7 19 23 -1 25 -27 223 -40 307 -5 30 -74 669
-154 1420 -159 1501 -156 1475 -150 1340z"/>
<path d="M1 2555 c0 -22 48 -510 108 -1085 60 -575 109 -1061 108 -1080 0 -43
22 -301 30 -352 4 -29 10 -38 25 -38 23 0 23 -23 -8 250 -9 74 -20 144 -24
155 -5 11 -59 502 -120 1090 -61 589 -112 1077 -114 1085 -2 8 -4 -3 -5 -25z"/>
<path d="M2 1975 c-1 -22 32 -362 73 -755 42 -393 82 -809 90 -925 20 -285 22
-295 46 -295 23 0 22 -10 3 125 -8 61 -19 137 -24 170 -4 33 -46 420 -93 860
-97 906 -93 876 -95 820z"/>
<path d="M1 1395 c-1 -40 23 -286 79 -805 17 -151 32 -315 35 -365 3 -50 7
-110 10 -135 2 -25 4 -55 4 -67 1 -17 7 -23 22 -23 18 0 20 4 15 26 -4 14 -11
62 -17 107 -5 45 -11 87 -14 94 -2 7 -16 124 -30 260 -35 337 -83 782 -94 873
-6 51 -9 62 -10 35z"/>
<path d="M3 775 c3 -55 16 -203 30 -330 23 -202 35 -348 37 -422 0 -16 6 -23
21 -23 11 0 18 4 15 8 -15 24 -75 559 -82 727 -2 66 -9 124 -15 130 -8 7 -10
-18 -6 -90z"/>
<path d="M2 215 c-1 -119 16 -232 32 -214 4 4 -21 242 -28 269 -2 8 -4 -16 -4
-55z"/>
</g>
</svg>
