<?xml version="1.0" standalone="no"?>
<!DOCTYPE svg PUBLIC "-//W3C//DTD SVG 20010904//EN"
 "http://www.w3.org/TR/2001/REC-SVG-20010904/DTD/svg10.dtd">
<svg version="1.0" xmlns="http://www.w3.org/2000/svg"
 width="473.000000pt" height="473.000000pt" viewBox="0 0 473.000000 473.000000"
 preserveAspectRatio="xMidYMid meet">
<metadata>
Created by potrace 1.16, written by Peter Selinger 2001-2019
</metadata>
<g transform="translate(0.000000,473.000000) scale(0.100000,-0.100000)"
fill="#000000" stroke="none">
<path d="M44 4643 c6 -86 29 -332 81 -867 14 -148 24 -278 23 -290 -2 -12 -7
13 -11 54 -5 41 -19 172 -33 290 -13 118 -34 294 -45 390 -57 500 -56 498 -58
342 0 -68 3 -165 9 -215 5 -51 16 -164 25 -252 8 -88 26 -280 40 -427 15 -147
25 -275 23 -285 -3 -15 -20 128 -82 672 l-11 100 -3 -169 c-2 -132 4 -238 28
-478 17 -170 30 -317 28 -326 -2 -9 -14 84 -27 208 -12 124 -24 230 -26 235
-1 6 -3 -610 -3 -1369 0 -758 3 -1389 8 -1401 5 -13 11 -85 13 -162 3 -101 2
-121 -4 -74 -4 34 -10 68 -13 75 -11 24 1 -465 14 -576 13 -106 16 -118 33
-118 19 0 20 5 13 118 -4 64 -13 176 -21 247 -8 72 -14 144 -14 160 1 17 7
-22 14 -85 35 -309 56 -440 72 -440 15 0 16 46 5 150 -4 36 -5 79 -1 95 6 34
7 31 32 -149 8 -58 17 -91 26 -94 11 -4 12 9 7 64 -27 277 -33 471 -10 314 8
-52 18 -124 24 -160 5 -36 14 -98 19 -138 5 -41 12 -77 15 -80 15 -15 17 15 6
120 -22 229 -25 274 -20 318 l6 45 6 -40 c12 -67 25 -165 37 -265 20 -168 22
-180 33 -180 7 0 9 20 4 63 -6 57 -18 221 -30 437 l-5 85 14 -100 c8 -55 19
-131 25 -170 6 -38 17 -124 26 -189 8 -66 16 -122 19 -124 15 -15 15 23 1 180
-9 95 -19 218 -22 273 -3 55 -7 102 -9 105 -2 3 0 12 6 20 7 13 9 13 9 0 0 -8
5 -44 10 -80 23 -161 31 -224 46 -355 8 -77 17 -142 20 -144 14 -15 14 28 0
186 -10 98 -22 232 -27 298 -5 66 -16 185 -24 265 -8 80 -15 165 -14 190 l1
45 9 -50 c4 -27 15 -111 23 -185 8 -74 26 -223 40 -330 13 -107 30 -246 37
-307 7 -72 16 -113 23 -113 9 0 6 57 -11 212 -20 191 -46 500 -45 538 0 8 -6
75 -14 148 -8 74 -13 146 -13 160 1 15 10 -40 20 -123 9 -82 24 -197 33 -255
8 -58 30 -234 47 -392 22 -191 37 -288 44 -288 7 0 10 12 8 27 -7 54 -72 699
-79 783 -4 47 -6 99 -5 116 1 17 -10 131 -24 254 -24 213 -30 298 -21 289 3
-2 16 -123 31 -269 14 -146 30 -274 35 -285 5 -11 11 -42 13 -70 3 -27 24
-219 46 -425 23 -206 41 -385 41 -397 0 -17 6 -23 21 -23 20 0 21 3 14 58 -4
31 -10 59 -14 62 -8 5 -48 377 -56 516 -5 90 -14 179 -25 269 -19 153 -21 183
-11 189 14 9 18 -16 31 -164 6 -69 17 -172 25 -230 30 -218 65 -556 60 -578
-3 -12 -3 -45 1 -72 6 -44 10 -50 30 -50 18 0 24 6 27 33 l4 32 1 -32 c2 -28
6 -33 26 -33 21 0 25 5 29 38 l4 37 1 -37 c2 -33 5 -38 26 -38 22 0 25 5 29
43 l4 42 1 -42 c2 -39 4 -43 28 -43 l26 0 -5 92 -5 93 10 -93 11 -92 57 0 c54
0 57 1 54 22 -2 13 -13 115 -24 228 -12 113 -25 214 -30 225 -15 31 -50 384
-53 540 l-4 140 11 -90 c7 -49 15 -97 19 -105 11 -23 55 -460 51 -500 -2 -19
6 -129 19 -245 l22 -210 26 -3 c25 -3 26 -1 24 50 -2 29 -1 40 1 23 9 -67 14
-76 37 -73 20 3 22 8 20 63 l-1 60 7 -52 c6 -52 24 -83 38 -69 4 3 -34 404
-85 889 -50 485 -94 941 -96 1012 -5 134 -4 131 24 -45 6 -36 53 -468 106
-960 53 -492 98 -897 99 -899 20 -20 11 99 -51 689 -41 381 -75 749 -77 830
-4 145 -4 145 7 55 6 -49 14 -95 18 -101 7 -10 158 -1407 158 -1456 0 -10 7
-18 15 -18 10 0 13 8 10 28 -13 70 -114 1083 -113 1127 2 67 -22 285 -33 310
-11 26 -42 313 -35 331 3 7 1 53 -5 101 -23 194 -25 223 -18 234 8 14 15 -33
30 -196 6 -71 15 -132 19 -135 9 -6 36 -259 33 -315 -3 -56 24 -307 36 -336 5
-13 36 -277 67 -586 54 -526 59 -563 77 -563 15 0 18 5 14 23 -3 12 -13 92
-22 177 -9 85 -20 191 -26 235 -43 346 -58 486 -64 589 -3 66 -10 126 -14 135
-9 17 -37 284 -34 316 3 23 -23 298 -47 500 -9 77 -14 149 -11 160 7 28 18
-28 26 -135 4 -47 13 -137 20 -200 8 -63 17 -155 21 -205 3 -49 10 -95 15
-101 4 -5 15 -86 24 -180 16 -173 20 -212 55 -514 12 -96 23 -224 26 -285 2
-60 9 -134 14 -162 5 -29 15 -120 22 -203 12 -146 13 -150 35 -150 13 0 23 6
23 13 0 6 -11 109 -25 227 -23 202 -31 309 -21 299 5 -4 20 -145 47 -416 12
-121 12 -123 37 -123 22 0 24 3 18 33 -3 18 -11 93 -16 166 -6 74 -15 164 -20
200 -5 36 -9 86 -9 111 1 27 7 0 15 -65 7 -60 20 -168 29 -240 8 -72 16 -146
18 -165 2 -28 6 -36 26 -38 22 -4 23 -1 17 29 -3 18 -18 155 -31 304 -14 148
-30 300 -35 336 -5 36 -12 113 -15 170 l-5 104 14 -95 c8 -52 22 -167 31 -255
9 -88 25 -230 35 -315 10 -85 21 -182 24 -215 3 -33 5 -61 6 -62 0 -2 9 -3 20
-3 23 0 23 4 10 102 -14 109 -40 364 -45 443 -8 123 -27 289 -36 310 -12 28
-27 163 -19 172 4 5 -1 80 -11 168 -10 88 -21 192 -25 230 -4 39 -10 75 -15
80 -8 11 -28 214 -34 351 -5 112 -25 275 -36 297 -5 10 -11 86 -13 170 -3 131
-2 142 6 77 5 -41 13 -79 19 -86 5 -6 11 -60 14 -120 6 -136 25 -346 31 -356
11 -17 34 -226 39 -338 2 -63 6 -133 9 -155 3 -22 10 -94 16 -160 7 -66 18
-140 26 -164 9 -25 15 -84 15 -135 1 -50 7 -145 15 -211 49 -413 65 -567 66
-605 0 -55 7 -70 32 -70 22 0 23 2 15 48 -24 150 -45 360 -53 537 -4 92 -3 90
13 -25 28 -192 34 -239 44 -390 l12 -165 28 -3 c24 -3 28 0 24 15 -9 29 -30
273 -25 278 3 3 10 -55 17 -127 14 -154 17 -168 37 -168 15 0 18 29 17 150 -1
36 1 52 3 35 11 -86 40 -185 53 -185 11 0 13 20 8 112 -5 109 0 95 18 -49 7
-53 11 -63 27 -63 18 0 19 5 14 42 -3 24 -10 86 -16 138 -5 52 -17 153 -25
225 -8 72 -14 148 -13 170 1 22 -1 83 -4 135 l-7 95 14 -110 c8 -60 18 -120
24 -131 5 -12 13 -66 16 -120 4 -55 13 -145 21 -200 8 -56 14 -134 14 -173 0
-69 1 -71 24 -71 23 0 24 3 20 37 -3 21 -10 49 -15 63 -5 14 -11 81 -13 150
-3 69 -9 154 -15 190 -5 36 -12 99 -16 140 -3 41 -10 111 -16 155 -5 44 -19
172 -30 285 -20 201 -44 406 -74 625 -8 61 -17 167 -20 236 -2 70 -9 138 -14
151 -5 14 -12 67 -15 119 -3 52 -11 154 -17 227 -6 73 -9 135 -6 138 2 2 7
-28 11 -68 3 -40 15 -134 26 -208 10 -74 22 -184 25 -245 4 -60 10 -114 15
-120 9 -12 43 -312 36 -323 -2 -4 2 -59 9 -122 7 -63 16 -155 19 -205 4 -49
15 -160 26 -245 10 -85 22 -186 25 -225 4 -38 13 -124 20 -190 8 -66 17 -160
20 -210 4 -49 11 -93 16 -96 8 -5 19 -125 19 -221 0 -31 4 -38 19 -38 16 0 19
6 15 32 -13 104 -24 220 -20 226 7 12 -49 530 -73 682 -5 30 -12 100 -16 155
-3 55 -10 118 -15 140 -5 22 -12 90 -15 150 -13 232 -33 440 -45 472 -13 31
-43 312 -36 336 3 11 -6 126 -20 255 -14 129 -24 244 -22 256 2 11 15 -95 30
-237 15 -143 31 -264 36 -270 10 -13 36 -261 34 -317 -2 -43 15 -233 28 -315
25 -159 40 -278 45 -360 4 -49 10 -108 15 -130 5 -22 11 -80 14 -130 15 -241
49 -580 67 -661 5 -23 14 -96 20 -163 8 -77 17 -121 24 -121 15 0 9 172 -10
270 -8 41 -17 122 -19 180 -4 107 -19 240 -36 320 -5 25 -12 97 -15 160 -3 63
-10 129 -15 145 -14 43 -80 698 -85 838 -3 65 -7 123 -11 128 -9 15 -34 282
-33 349 l1 55 9 -50 c13 -77 37 -289 44 -394 4 -52 11 -103 16 -115 10 -24 89
-761 89 -834 0 -26 7 -84 15 -130 8 -45 15 -103 16 -130 3 -124 22 -322 34
-367 8 -27 17 -108 20 -179 2 -71 9 -134 14 -140 5 -6 11 -31 13 -55 2 -25 8
-46 14 -48 15 -5 9 137 -12 267 -9 52 -15 129 -15 170 0 41 -6 106 -14 145 -8
38 -17 106 -20 150 -3 44 -12 134 -20 200 -8 66 -19 188 -25 270 -7 83 -15
168 -20 190 -5 22 -14 105 -20 185 -6 80 -18 213 -26 296 -9 82 -14 161 -12
175 2 13 10 -34 17 -106 7 -71 19 -168 26 -215 7 -47 19 -139 25 -205 28 -291
42 -422 50 -455 5 -19 12 -82 16 -140 3 -58 10 -124 15 -147 5 -23 11 -98 14
-165 3 -68 12 -148 20 -178 7 -30 17 -111 20 -179 3 -68 10 -132 15 -142 6
-10 10 -35 10 -56 0 -38 14 -72 24 -62 4 3 -3 86 -13 185 -11 98 -22 220 -26
269 -3 50 -10 113 -15 140 -5 28 -16 122 -25 210 -8 88 -22 221 -31 296 -8 75
-14 140 -13 145 5 17 -12 217 -37 442 -13 123 -23 240 -23 260 2 51 14 -38 45
-323 13 -126 29 -257 34 -290 13 -83 47 -390 90 -805 28 -282 57 -520 63 -526
17 -17 17 15 -2 192 -11 104 -22 234 -26 289 -8 140 -13 199 -30 364 -8 79
-14 155 -14 170 1 14 12 -62 24 -169 13 -107 30 -247 39 -310 10 -63 28 -209
41 -325 13 -116 24 -211 25 -212 0 -2 22 -3 48 -3 l48 0 -6 58 c-4 31 -12 75
-18 97 -19 64 -104 920 -96 963 4 20 9 30 11 22 3 -8 8 -24 13 -35 5 -11 18
-114 29 -230 12 -116 32 -313 45 -440 13 -126 24 -272 24 -323 1 -101 4 -112
33 -112 24 0 25 41 4 138 -15 71 -86 732 -86 804 0 24 -4 79 -9 123 -19 165
-42 467 -36 472 3 4 6 -6 6 -21 0 -37 46 -427 65 -551 24 -154 85 -751 85
-831 0 -90 9 -134 26 -134 17 0 17 24 4 140 -5 47 -12 136 -15 199 -3 62 -7
116 -9 120 -2 3 0 15 4 26 6 15 9 8 14 -30 3 -27 11 -77 16 -110 12 -65 40
-299 40 -327 0 -10 7 -18 15 -18 13 0 15 11 9 68 -3 37 -8 74 -11 82 -5 17
-69 624 -72 685 -1 22 -8 87 -16 145 -8 58 -19 183 -25 279 -6 96 -15 180 -21
187 -6 7 -12 62 -14 122 -4 135 -25 343 -36 358 -8 10 -30 241 -30 319 0 34
-14 171 -75 750 -4 33 -10 62 -15 65 -9 6 -29 257 -28 345 l2 60 8 -45 c5 -25
13 -78 19 -118 5 -41 12 -82 15 -93 4 -10 8 -72 10 -136 5 -192 65 -739 106
-975 5 -31 12 -110 14 -175 5 -140 23 -303 36 -319 5 -6 11 -77 14 -158 3 -82
8 -153 12 -160 8 -12 14 -58 32 -236 7 -63 19 -169 27 -235 21 -176 62 -577
69 -675 7 -111 13 -140 31 -140 9 0 13 4 10 9 -3 5 -8 76 -11 157 -3 81 -9
150 -14 153 -12 8 -32 197 -37 344 -2 64 -8 126 -13 136 -12 22 -76 632 -87
831 -2 41 -11 107 -19 145 -17 82 -65 563 -65 650 0 61 -23 243 -40 325 -6 25
-12 99 -14 165 -2 66 -7 154 -10 195 -3 41 2 14 11 -60 9 -74 20 -138 25 -141
4 -3 15 -109 23 -235 8 -126 19 -238 25 -249 12 -26 71 -560 71 -645 0 -36 4
-93 9 -126 6 -34 16 -117 24 -185 56 -475 66 -579 70 -689 3 -68 9 -126 14
-129 11 -7 33 -218 37 -364 2 -60 8 -114 13 -120 6 -7 13 -47 17 -89 6 -58 11
-78 22 -78 9 0 12 6 9 18 -3 9 -8 77 -11 151 -3 74 -10 141 -14 150 -13 25
-33 213 -37 355 -2 77 -8 132 -14 136 -6 4 -14 72 -20 162 -4 86 -13 165 -19
176 -6 11 -12 83 -15 161 -3 77 -8 145 -11 151 -4 6 -15 84 -25 173 -10 89
-28 242 -39 340 -12 97 -28 271 -36 385 -9 114 -18 214 -21 224 -8 26 -49 369
-59 498 -3 41 -10 109 -15 150 -5 41 -11 136 -13 210 -4 129 -4 132 6 50 5
-47 13 -87 17 -90 3 -3 14 -79 24 -170 9 -91 21 -201 26 -245 9 -74 24 -245
36 -410 5 -70 17 -166 35 -280 12 -80 47 -417 54 -530 3 -49 8 -97 10 -105 2
-8 9 -89 15 -180 6 -90 16 -170 22 -177 5 -7 12 -68 14 -135 3 -68 11 -150 19
-183 8 -33 17 -117 19 -187 1 -70 8 -133 13 -140 13 -16 33 -202 39 -357 2
-63 8 -119 13 -125 5 -6 12 -48 16 -93 6 -63 11 -83 22 -83 11 0 13 9 9 38
-16 100 -66 613 -61 622 3 5 1 46 -4 92 -5 46 -12 124 -15 173 -4 69 0 51 17
-80 13 -93 26 -177 29 -185 4 -8 21 -157 39 -330 28 -282 38 -344 53 -329 3 2
-13 171 -35 374 -21 204 -41 415 -44 470 -3 55 -8 107 -10 116 -3 9 -1 27 4
40 8 23 9 22 14 -11 27 -177 41 -295 73 -610 34 -331 44 -394 58 -379 3 3 -15
196 -39 429 -50 472 -63 600 -70 708 -13 202 -27 337 -34 342 -4 3 -15 77 -24
165 -18 187 -126 1208 -161 1534 -13 123 -22 230 -19 237 6 17 -31 371 -57
532 -20 127 -59 511 -64 628 -6 137 -10 154 -37 154 -19 0 -19 -5 -13 -77 4
-43 11 -89 16 -102 14 -38 57 -475 62 -627 2 -77 2 -121 0 -99 -3 22 -9 49
-13 60 -5 11 -12 45 -15 75 -4 30 -18 152 -31 270 -14 119 -27 268 -29 332 -6
142 -12 168 -38 168 -17 0 -18 -5 -13 -62 4 -35 13 -97 20 -138 15 -83 45
-364 50 -468 2 -37 5 -116 8 -177 6 -123 4 -121 -13 10 -6 50 -15 108 -20 130
-13 60 -49 406 -54 516 -7 150 -15 189 -38 189 -19 0 -20 -4 -14 -77 4 -43 11
-91 16 -108 18 -58 58 -488 50 -540 l-7 -50 -2 42 c0 23 -5 43 -10 45 -11 3
-50 360 -55 500 -6 143 -15 188 -37 188 -23 0 -22 11 -4 -125 32 -233 56 -485
59 -615 3 -131 3 -132 -7 -50 -5 47 -13 87 -17 90 -8 5 -54 429 -66 603 -6 86
-9 97 -25 97 -23 0 -23 13 1 -166 32 -246 51 -451 54 -589 l3 -130 -11 85 c-6
47 -14 90 -18 96 -8 13 -53 430 -63 597 -7 98 -9 107 -27 107 -18 0 -19 -5
-14 -37 23 -150 67 -603 69 -718 4 -137 4 -138 -6 -50 -5 50 -13 92 -17 95
-10 6 -70 564 -70 648 0 58 -1 62 -23 62 -23 0 -23 0 -15 -92 4 -51 12 -106
17 -123 15 -47 41 -302 45 -453 3 -75 2 -121 0 -102 -3 19 -9 44 -14 55 -4 11
-11 45 -14 75 -4 30 -15 133 -26 229 -11 96 -17 178 -14 183 3 5 0 58 -6 118
-12 107 -13 110 -37 110 -18 0 -23 -4 -19 -17 2 -10 7 -54 11 -98 3 -44 11
-93 16 -110 18 -54 56 -476 49 -535 -7 -50 -7 -51 -9 -15 0 23 -5 45 -11 51
-10 10 -62 473 -54 485 2 4 -1 60 -8 123 -11 112 -12 116 -36 116 -20 0 -23
-4 -18 -27 3 -16 8 -64 11 -108 4 -44 10 -89 16 -100 16 -35 56 -465 49 -530
-7 -58 -7 -59 -9 -13 0 25 -5 48 -10 50 -11 3 -64 475 -56 489 3 4 0 60 -7
123 -11 112 -12 116 -35 116 -23 0 -24 -3 -19 -42 3 -24 11 -88 16 -143 6 -55
15 -129 21 -165 25 -167 39 -307 42 -435 l4 -140 -11 90 c-6 50 -14 95 -18
101 -9 13 -37 268 -37 329 0 49 -30 375 -36 393 -4 11 -45 18 -45 8 0 -40 43
-397 49 -411 15 -32 54 -450 46 -486 l-8 -33 -12 34 c-14 37 -60 464 -52 477
5 8 -29 358 -38 401 -3 14 -13 22 -25 22 -11 0 -20 -2 -20 -4 0 -44 43 -412
49 -424 17 -30 55 -456 44 -487 l-9 -29 -12 45 c-15 56 -55 455 -48 474 3 8
-4 92 -14 187 -27 237 -27 238 -50 238 -11 0 -20 -4 -20 -10 0 -45 42 -409 49
-425 12 -27 73 -618 65 -638 -5 -15 1 -89 31 -332 8 -66 22 -199 31 -295 9
-96 20 -177 23 -180 14 -9 39 -303 31 -355 -7 -45 -7 -46 -9 -13 0 20 -5 38
-10 40 -10 4 -43 311 -35 332 3 7 -2 74 -10 147 -29 248 -36 313 -52 478 -9
90 -20 171 -25 180 -10 19 -73 617 -66 634 4 12 -25 322 -38 400 -5 28 -12 37
-26 37 -11 0 -19 -7 -19 -17 0 -52 41 -399 50 -426 13 -40 129 -1167 134
-1302 2 -55 7 -136 10 -180 5 -80 5 -80 -9 20 -8 55 -14 117 -14 137 -1 20 -5
38 -10 40 -10 3 -140 1219 -139 1308 0 53 -27 321 -38 388 -5 23 -12 32 -25
32 -11 0 -19 -6 -19 -12 0 -51 41 -419 50 -443 16 -48 103 -914 95 -954 l-7
-36 -13 35 c-15 39 -110 943 -102 964 5 13 -8 145 -34 354 -10 79 -14 92 -30
92 -24 0 -24 11 7 -302 14 -143 24 -267 22 -276 -2 -9 -14 78 -26 193 -42 381
-42 385 -63 385 -24 0 -24 9 6 -309 15 -145 25 -271 23 -280 -2 -9 -14 79 -26
194 -45 409 -43 395 -67 395 -20 0 -21 -2 -13 -77 34 -326 68 -685 67 -705 -1
-24 -88 719 -89 760 0 16 -6 22 -23 22 l-23 0 13 -127 c25 -269 35 -363 89
-877 30 -291 54 -539 52 -550 -2 -12 -20 141 -41 339 -20 198 -58 552 -84 788
-47 423 -48 427 -70 427 -19 0 -22 -4 -18 -27 6 -35 54 -534 60 -628 4 -57
-38 275 -72 580 -7 63 -10 70 -31 73 -19 3 -22 0 -18 -20 3 -13 7 -52 10 -88
3 -36 17 -181 32 -323 14 -143 24 -269 22 -280 -2 -12 -20 136 -41 328 -21
193 -41 358 -43 368 -3 9 -14 17 -25 17 -17 0 -20 -5 -15 -27 2 -16 7 -57 10
-93 3 -36 20 -204 37 -373 16 -170 29 -315 27 -324 -2 -9 -23 161 -46 378 -24
217 -46 404 -49 417 -3 14 -13 22 -25 22 -17 0 -19 -5 -14 -37 4 -21 13 -112
21 -203 8 -91 24 -253 35 -360 11 -107 19 -206 19 -220 -1 -22 -23 153 -73
600 -25 219 -25 220 -48 220 -17 0 -19 -5 -14 -37 3 -21 10 -92 16 -158 6 -66
22 -229 35 -363 14 -134 24 -255 24 -270 -1 -24 -19 118 -73 598 -27 234 -26
230 -48 230 -18 0 -20 -5 -15 -42 7 -51 9 -71 43 -421 14 -147 24 -276 22
-285 -2 -9 -16 98 -31 238 -16 140 -32 282 -37 315 -5 33 -11 90 -15 128 -6
58 -9 67 -27 67 -18 0 -19 -5 -14 -47 3 -27 13 -120 21 -208 8 -88 22 -230 30
-315 8 -85 14 -166 14 -180 -1 -24 -36 257 -74 593 -16 140 -20 157 -36 157
-11 0 -19 -2 -19 -5 0 -2 20 -212 45 -466 25 -254 44 -471 44 -483 -1 -21 -46
354 -90 752 -21 187 -24 202 -42 202 -18 0 -19 -5 -13 -57 16 -147 76 -789 75
-808 -1 -20 -82 650 -95 783 -4 49 -11 75 -21 79 -28 11 -30 52 37 -637 11
-113 19 -216 19 -230 -1 -25 -40 292 -78 635 -12 105 -24 200 -26 213 -6 23
-35 31 -35 10 0 -11 24 -264 71 -744 6 -62 9 -120 7 -130 -2 -11 -16 91 -31
226 -73 657 -74 660 -94 660 -13 0 -15 -10 -9 -67 4 -38 14 -140 22 -228 8
-88 32 -340 55 -560 22 -220 42 -429 44 -465 6 -88 -18 104 -55 450 -30 272
-83 738 -95 828 -4 27 -11 42 -21 42 -8 0 -14 -8 -14 -18 0 -23 86 -919 100
-1038 5 -49 9 -102 9 -119 -1 -16 -23 159 -49 390 -26 231 -57 500 -69 598
-12 98 -21 180 -21 183 0 2 -7 4 -15 4 -18 0 -19 -26 -5 -153 6 -51 24 -234
40 -407 17 -173 37 -383 46 -467 9 -83 14 -160 12 -170 -2 -10 -14 79 -26 197
-20 187 -90 795 -108 948 -5 37 -11 52 -22 52 -16 0 -17 15 12 -300 37 -394
69 -716 117 -1164 27 -264 49 -489 47 -500 -2 -12 -20 143 -41 344 -42 402
-123 1139 -158 1433 -18 147 -26 187 -37 187 -12 0 -14 -13 -9 -77 6 -74 51
-550 62 -658 35 -338 55 -545 54 -565 -1 -14 -25 182 -54 435 -94 827 -98 865
-112 865 -21 0 -20 -7 68 -893 22 -225 39 -416 37 -425 -2 -8 -22 162 -46 379
-82 746 -106 932 -121 937 -16 5 -14 -29 13 -318 9 -85 22 -227 30 -315 8 -88
24 -252 36 -363 12 -112 20 -214 18 -225 -2 -12 -18 113 -36 278 -47 426 -102
896 -107 923 -9 37 -25 25 -25 -19 0 -22 4 -82 10 -132 5 -51 19 -191 30 -312
11 -121 23 -240 25 -265 3 -25 14 -138 26 -253 11 -114 19 -217 17 -230 -2
-12 -16 91 -31 228 -28 247 -56 496 -76 670 -6 50 -16 131 -21 180 -14 125
-21 155 -32 155 -7 0 -8 -30 -4 -87z m1460 -565 c3 -24 8 -106 10 -183 3 -105
2 -126 -5 -85 -5 30 -15 96 -24 145 -23 142 -25 163 -12 168 19 7 24 0 31 -45z
m-66 -103 c-1 -35 -2 -33 -8 15 -5 30 -8 73 -8 95 1 35 2 33 8 -15 5 -30 8
-73 8 -95z m-170 -120 c-1 -35 -2 -33 -8 15 -5 30 -8 73 -8 95 1 35 2 33 8
-15 5 -30 8 -73 8 -95z m-60 -10 c-1 -35 -2 -33 -8 15 -5 30 -8 73 -8 95 1 35
2 33 8 -15 5 -30 8 -73 8 -95z m-240 -30 c-1 -35 -2 -33 -8 15 -5 30 -8 73 -8
95 1 35 2 33 8 -15 5 -30 8 -73 8 -95z m-60 -10 c-1 -35 -2 -33 -8 15 -5 30
-8 73 -8 95 1 35 2 33 8 -15 5 -30 8 -73 8 -95z m1400 0 c-1 -35 -2 -33 -8 15
-5 30 -8 73 -8 95 1 35 2 33 8 -15 5 -30 8 -73 8 -95z m-850 -20 c-1 -35 -2
-33 -8 15 -5 30 -8 73 -8 95 1 35 2 33 8 -15 5 -30 8 -73 8 -95z m-60 -10 c-1
-35 -2 -33 -8 15 -5 30 -8 73 -8 95 1 35 2 33 8 -15 5 -30 8 -73 8 -95z m670
0 c-1 -35 -2 -33 -8 15 -5 30 -8 73 -8 95 1 35 2 33 8 -15 5 -30 8 -73 8 -95z
m-60 -10 c-1 -35 -2 -33 -8 15 -5 30 -8 73 -8 95 1 35 2 33 8 -15 5 -30 8 -73
8 -95z m-60 -10 c-1 -35 -2 -33 -8 15 -5 30 -8 73 -8 95 1 35 2 33 8 -15 5
-30 8 -73 8 -95z m-738 -479 c34 -319 60 -589 58 -600 -3 -23 -130 1179 -127
1204 3 26 7 -11 69 -604z m-112 459 c-1 -35 -2 -33 -8 15 -5 30 -8 73 -8 95 1
35 2 33 8 -15 5 -30 8 -73 8 -95z m-60 -10 c-1 -35 -2 -33 -8 15 -5 30 -8 73
-8 95 1 35 2 33 8 -15 5 -30 8 -73 8 -95z m1230 -120 c-1 -22 -6 7 -13 65 -7
58 -13 123 -13 145 1 22 6 -7 13 -65 7 -58 13 -123 13 -145z m-1481 168 c-2
-16 -4 -5 -4 22 0 28 2 40 4 28 2 -13 2 -35 0 -50z m1411 -78 c-1 -35 -2 -33
-8 15 -5 30 -8 73 -8 95 1 35 2 33 8 -15 5 -30 8 -73 8 -95z m-1460 -10 c-1
-35 -2 -33 -8 15 -5 30 -8 73 -8 95 1 35 2 33 8 -15 5 -30 8 -73 8 -95z m1400
0 c-1 -35 -2 -33 -8 15 -5 30 -8 73 -8 95 1 35 2 33 8 -15 5 -30 8 -73 8 -95z
m-1460 -10 c-1 -35 -2 -33 -8 15 -5 30 -8 73 -8 95 1 35 2 33 8 -15 5 -30 8
-73 8 -95z m610 -10 c-1 -35 -2 -33 -8 15 -5 30 -8 73 -8 95 1 35 2 33 8 -15
5 -30 8 -73 8 -95z m-60 -10 c-1 -35 -2 -33 -8 15 -5 30 -8 73 -8 95 1 35 2
33 8 -15 5 -30 8 -73 8 -95z m694 -185 c16 -151 34 -309 38 -350 17 -152 32
-351 28 -356 -3 -3 -8 33 -12 78 -4 46 -13 128 -21 183 -8 55 -17 137 -20 183
-3 45 -17 186 -30 313 -14 126 -24 242 -24 257 2 26 2 26 6 -3 2 -16 18 -154
35 -305z m-84 175 c-1 -35 -2 -33 -8 15 -5 30 -8 73 -8 95 1 35 2 33 8 -15 5
-30 8 -73 8 -95z m-60 -10 c-1 -35 -2 -33 -8 15 -5 30 -8 73 -8 95 1 35 2 33
8 -15 5 -30 8 -73 8 -95z m675 -40 c4 -68 3 -86 -2 -55 -5 25 -11 90 -14 145
-4 68 -3 86 2 55 5 -25 11 -90 14 -145z m-1445 -165 c0 -19 -9 33 -18 115 -10
83 -18 168 -18 190 0 22 9 -30 19 -115 10 -85 17 -171 17 -190z m1380 195 c-1
-35 -2 -33 -8 15 -5 30 -8 73 -8 95 1 35 2 33 8 -15 5 -30 8 -73 8 -95z
m-1460 -10 c-1 -35 -2 -33 -8 15 -5 30 -8 73 -8 95 1 35 2 33 8 -15 5 -30 8
-73 8 -95z m1400 0 c-1 -35 -2 -33 -8 15 -5 30 -8 73 -8 95 1 35 2 33 8 -15 5
-30 8 -73 8 -95z m-1440 -200 c0 -22 -9 30 -19 115 -10 85 -17 171 -17 190 0
19 9 -32 18 -115 10 -82 18 -168 18 -190z m639 268 c-2 -16 -4 -5 -4 22 0 28
2 40 4 28 2 -13 2 -35 0 -50z m-730 -5 c-2 -13 -4 -3 -4 22 0 25 2 35 4 23 2
-13 2 -33 0 -45z m681 -83 c-1 -35 -2 -33 -8 15 -5 30 -8 73 -8 95 1 35 2 33
8 -15 5 -30 8 -73 8 -95z m-60 -10 c-1 -35 -2 -33 -8 15 -5 30 -8 73 -8 95 1
35 2 33 8 -15 5 -30 8 -73 8 -95z m704 -216 c5 -3 11 -59 13 -125 5 -134 28
-375 51 -535 8 -58 14 -130 12 -160 -3 -49 -4 -44 -15 46 -6 55 -23 215 -38
355 -14 140 -30 259 -36 266 -5 6 -11 74 -14 150 -2 76 -9 177 -14 224 -6 47
-10 99 -10 115 1 17 11 -51 21 -150 11 -99 25 -183 30 -186z m-94 206 c-1 -35
-2 -33 -8 15 -5 30 -8 73 -8 95 1 35 2 33 8 -15 5 -30 8 -73 8 -95z m-28 -240
c10 -61 14 -105 24 -280 l5 -100 -19 130 c-10 72 -24 193 -29 270 -6 77 -16
176 -21 220 -6 44 -9 93 -9 110 1 16 10 -42 20 -130 10 -88 23 -187 29 -220z
m-882 210 c-1 -35 -2 -33 -8 15 -5 30 -8 73 -8 95 1 35 2 33 8 -15 5 -30 8
-73 8 -95z m-60 -10 c-1 -35 -2 -33 -8 15 -5 30 -8 73 -8 95 1 35 2 33 8 -15
5 -30 8 -73 8 -95z m-215 -275 c4 -49 -2 -19 -13 70 -10 85 -20 193 -23 240
-4 49 2 19 13 -70 10 -85 20 -193 23 -240z m725 55 c0 -22 -9 30 -19 115 -10
85 -17 171 -17 190 0 19 9 -32 18 -115 10 -82 18 -168 18 -190z m650 190 c-1
-35 -2 -33 -8 15 -5 30 -8 73 -8 95 1 35 2 33 8 -15 5 -30 8 -73 8 -95z
m-1460 -10 c-1 -35 -2 -33 -8 15 -5 30 -8 73 -8 95 1 35 2 33 8 -15 5 -30 8
-73 8 -95z m1400 0 c-1 -35 -2 -33 -8 15 -5 30 -8 73 -8 95 1 35 2 33 8 -15 5
-30 8 -73 8 -95z m-1460 -10 c-1 -35 -2 -33 -8 15 -5 30 -8 73 -8 95 1 35 2
33 8 -15 5 -30 8 -73 8 -95z m610 -10 c-1 -35 -2 -33 -8 15 -5 30 -8 73 -8 95
1 35 2 33 8 -15 5 -30 8 -73 8 -95z m-60 -10 c-1 -35 -2 -33 -8 15 -5 30 -8
73 -8 95 1 35 2 33 8 -15 5 -30 8 -73 8 -95z m610 -10 c-1 -35 -2 -33 -8 15
-5 30 -8 73 -8 95 1 35 2 33 8 -15 5 -30 8 -73 8 -95z m-60 -10 c-1 -35 -2
-33 -8 15 -5 30 -8 73 -8 95 1 35 2 33 8 -15 5 -30 8 -73 8 -95z m625 -45 c6
-13 50 -412 91 -830 8 -80 42 -399 75 -709 33 -311 62 -628 65 -705 4 -146 3
-143 -28 64 -14 89 -103 909 -135 1235 -6 55 -28 269 -51 475 -22 206 -42 438
-44 515 l-3 140 11 -85 c7 -47 15 -92 19 -100z m-1475 25 c-1 -35 -2 -33 -8
15 -5 30 -8 73 -8 95 1 35 2 33 8 -15 5 -30 8 -73 8 -95z m1360 -200 c0 -22
-9 30 -19 115 -10 85 -17 171 -17 190 0 19 9 -32 18 -115 10 -82 18 -168 18
-190z m-810 180 c-1 -35 -2 -33 -8 15 -5 30 -8 73 -8 95 1 35 2 33 8 -15 5
-30 8 -73 8 -95z m-60 -10 c-1 -35 -2 -33 -8 15 -5 30 -8 73 -8 95 1 35 2 33
8 -15 5 -30 8 -73 8 -95z m622 -30 c11 -22 31 -259 29 -345 l-2 -55 -8 45 c-4
25 -13 78 -18 118 -6 40 -13 77 -16 82 -3 4 -7 79 -9 167 -3 128 -2 144 6 83
4 -41 13 -84 18 -95z m-1472 10 c-1 -35 -2 -33 -8 15 -5 30 -8 73 -8 95 1 35
2 33 8 -15 5 -30 8 -73 8 -95z m-60 -10 c-1 -35 -2 -33 -8 15 -5 30 -8 73 -8
95 1 35 2 33 8 -15 5 -30 8 -73 8 -95z m610 -10 c-1 -35 -2 -33 -8 15 -5 30
-8 73 -8 95 1 35 2 33 8 -15 5 -30 8 -73 8 -95z m-60 -10 c-1 -35 -2 -33 -8
15 -5 30 -8 73 -8 95 1 35 2 33 8 -15 5 -30 8 -73 8 -95z m1400 0 c-1 -35 -2
-33 -8 15 -5 30 -8 73 -8 95 1 35 2 33 8 -15 5 -30 8 -73 8 -95z m-2168 -192
c18 -166 30 -310 28 -320 -4 -19 -69 599 -67 632 2 36 8 -6 39 -312z m-82 172
c-1 -35 -2 -33 -8 15 -5 30 -8 73 -8 95 1 35 2 33 8 -15 5 -30 8 -73 8 -95z
m-60 -10 c-1 -35 -2 -33 -8 15 -5 30 -8 73 -8 95 1 35 2 33 8 -15 5 -30 8 -73
8 -95z m610 -10 c-1 -35 -2 -33 -8 15 -5 30 -8 73 -8 95 1 35 2 33 8 -15 5
-30 8 -73 8 -95z m1403 74 c6 -3 12 -71 13 -155 2 -96 1 -128 -4 -92 -4 32
-12 70 -18 85 -15 39 -21 129 -14 188 6 46 7 47 10 15 2 -19 8 -38 13 -41z
m-1463 -84 c-1 -35 -2 -33 -8 15 -5 30 -8 73 -8 95 1 35 2 33 8 -15 5 -30 8
-73 8 -95z m610 -10 c-1 -35 -2 -33 -8 15 -5 30 -8 73 -8 95 1 35 2 33 8 -15
5 -30 8 -73 8 -95z m-60 -10 c-1 -35 -2 -33 -8 15 -5 30 -8 73 -8 95 1 35 2
33 8 -15 5 -30 8 -73 8 -95z m610 -10 c-1 -35 -2 -33 -8 15 -5 30 -8 73 -8 95
1 35 2 33 8 -15 5 -30 8 -73 8 -95z m-1460 -10 c-1 -35 -2 -33 -8 15 -5 30 -8
73 -8 95 1 35 2 33 8 -15 5 -30 8 -73 8 -95z m1403 84 c5 -3 11 -75 13 -160 3
-132 2 -143 -6 -79 -5 41 -13 77 -17 80 -12 8 -21 129 -13 180 6 39 7 41 10
15 2 -16 8 -33 13 -36z m-1463 -94 c-1 -35 -2 -33 -8 15 -5 30 -8 73 -8 95 1
35 2 33 8 -15 5 -30 8 -73 8 -95z m680 -100 c-1 -22 -6 7 -13 65 -7 58 -13
123 -13 145 1 22 6 -7 13 -65 7 -58 13 -123 13 -145z m-70 90 c-1 -35 -2 -33
-8 15 -5 30 -8 73 -8 95 1 35 2 33 8 -15 5 -30 8 -73 8 -95z m-60 -10 c-1 -35
-2 -33 -8 15 -5 30 -8 73 -8 95 1 35 2 33 8 -15 5 -30 8 -73 8 -95z m-770
-205 c0 -19 -9 33 -18 115 -10 83 -18 168 -18 190 0 22 9 -30 19 -115 10 -85
17 -171 17 -190z m1380 195 c-1 -35 -2 -33 -8 15 -5 30 -8 73 -8 95 1 35 2 33
8 -15 5 -30 8 -73 8 -95z m-60 -10 c-1 -35 -2 -33 -8 15 -5 30 -8 73 -8 95 1
35 2 33 8 -15 5 -30 8 -73 8 -95z m-801 68 c-2 -16 -4 -5 -4 22 0 28 2 40 4
28 2 -13 2 -35 0 -50z m-49 -88 c-1 -35 -2 -33 -8 15 -5 30 -8 73 -8 95 1 35
2 33 8 -15 5 -30 8 -73 8 -95z m-60 -10 c-1 -35 -2 -33 -8 15 -5 30 -8 73 -8
95 1 35 2 33 8 -15 5 -30 8 -73 8 -95z m610 -10 c-1 -35 -2 -33 -8 15 -5 30
-8 73 -8 95 1 35 2 33 8 -15 5 -30 8 -73 8 -95z m-60 -10 c-1 -35 -2 -33 -8
15 -5 30 -8 73 -8 95 1 35 2 33 8 -15 5 -30 8 -73 8 -95z m1401 95 c4 -3 19
-124 35 -270 52 -508 67 -648 116 -1113 27 -257 52 -516 54 -575 3 -59 7 -143
10 -187 4 -57 0 -40 -13 56 -10 76 -21 141 -24 146 -6 9 -33 253 -91 818 -14
132 -46 433 -71 669 -29 277 -42 443 -38 470 6 32 8 36 11 16 2 -14 7 -27 11
-30z m-2251 -115 c-1 -35 -2 -33 -8 15 -5 30 -8 73 -8 95 1 35 2 33 8 -15 5
-30 8 -73 8 -95z m1400 0 c-1 -35 -2 -33 -8 15 -5 30 -8 73 -8 95 1 35 2 33 8
-15 5 -30 8 -73 8 -95z m-1460 -10 c-1 -35 -2 -33 -8 15 -5 30 -8 73 -8 95 1
35 2 33 8 -15 5 -30 8 -73 8 -95z m1400 0 c-1 -35 -2 -33 -8 15 -5 30 -8 73
-8 95 1 35 2 33 8 -15 5 -30 8 -73 8 -95z m-770 -200 c0 -22 -9 28 -18 110
-10 83 -18 168 -18 190 0 22 9 -27 18 -110 10 -82 18 -168 18 -190z m-80 180
c-1 -35 -2 -33 -8 15 -5 30 -8 73 -8 95 1 35 2 33 8 -15 5 -30 8 -73 8 -95z
m-40 -200 c0 -22 -9 28 -18 110 -10 83 -18 168 -18 190 0 22 9 -27 18 -110 10
-82 18 -168 18 -190z m650 190 c-1 -35 -2 -33 -8 15 -5 30 -8 73 -8 95 1 35 2
33 8 -15 5 -30 8 -73 8 -95z m-60 -10 c-1 -35 -2 -33 -8 15 -5 30 -8 73 -8 95
1 35 2 33 8 -15 5 -30 8 -73 8 -95z m617 -30 c8 -87 15 -170 14 -184 -2 -39
-38 247 -38 303 -1 90 8 42 24 -119z m-1467 10 c-1 -35 -2 -33 -8 15 -5 30 -8
73 -8 95 1 35 2 33 8 -15 5 -30 8 -73 8 -95z m-60 -10 c-1 -35 -2 -33 -8 15
-5 30 -8 73 -8 95 1 35 2 33 8 -15 5 -30 8 -73 8 -95z m610 -10 c-1 -35 -2
-33 -8 15 -5 30 -8 73 -8 95 1 35 2 33 8 -15 5 -30 8 -73 8 -95z m-60 -10 c-1
-35 -2 -33 -8 15 -5 30 -8 73 -8 95 1 35 2 33 8 -15 5 -30 8 -73 8 -95z m-60
-10 c-1 -35 -2 -33 -8 15 -5 30 -8 73 -8 95 1 35 2 33 8 -15 5 -30 8 -73 8
-95z m690 -195 c0 -19 -9 33 -18 115 -10 83 -18 168 -18 190 0 22 9 -30 19
-115 10 -85 17 -171 17 -190z m-1480 185 c-1 -35 -2 -33 -8 15 -5 30 -8 73 -8
95 1 35 2 33 8 -15 5 -30 8 -73 8 -95z m1420 -195 c0 -19 -9 33 -18 115 -10
83 -18 168 -18 190 0 22 9 -30 19 -115 10 -85 17 -171 17 -190z m-60 -5 c0
-22 -9 30 -19 115 -10 85 -17 171 -17 190 0 19 9 -32 18 -115 10 -82 18 -168
18 -190z m-810 180 c-1 -35 -2 -33 -8 15 -5 30 -8 73 -8 95 1 35 2 33 8 -15 5
-30 8 -73 8 -95z m-60 -10 c-1 -35 -2 -33 -8 15 -5 30 -8 73 -8 95 1 35 2 33
8 -15 5 -30 8 -73 8 -95z m610 -10 c-1 -35 -2 -33 -8 15 -5 30 -8 73 -8 95 1
35 2 33 8 -15 5 -30 8 -73 8 -95z m-60 -10 c-1 -35 -2 -33 -8 15 -5 30 -8 73
-8 95 1 35 2 33 8 -15 5 -30 8 -73 8 -95z m-40 -200 c0 -22 -9 30 -19 115 -10
85 -17 171 -17 190 0 19 9 -32 18 -115 10 -82 18 -168 18 -190z m-810 180 c-1
-35 -2 -33 -8 15 -5 30 -8 73 -8 95 1 35 2 33 8 -15 5 -30 8 -73 8 -95z m1400
0 c-1 -39 -1 -38 -8 10 -5 28 -8 70 -8 95 l1 45 7 -55 c5 -30 8 -73 8 -95z
m-1460 -10 c-1 -35 -2 -33 -8 15 -5 30 -8 73 -8 95 1 35 2 33 8 -15 5 -30 8
-73 8 -95z m1400 0 c-1 -35 -2 -33 -8 15 -5 30 -8 73 -8 95 1 35 2 33 8 -15 5
-30 8 -73 8 -95z m632 -130 c28 -184 30 -207 21 -253 -7 -39 -9 -42 -10 -15 0
17 -5 33 -10 35 -8 2 -44 449 -40 491 1 7 7 -33 15 -88 7 -55 18 -131 24 -170z
m-2223 188 c-2 -16 -4 -5 -4 22 0 28 2 40 4 28 2 -13 2 -35 0 -50z m741 -78
c-1 -35 -2 -33 -8 15 -5 30 -8 73 -8 95 1 35 2 33 8 -15 5 -30 8 -73 8 -95z
m630 -205 c0 -19 -9 33 -18 115 -10 83 -18 168 -18 190 0 22 9 -30 19 -115 10
-85 17 -171 17 -190z m-80 185 c-1 -35 -2 -33 -8 15 -5 30 -8 73 -8 95 1 35 2
33 8 -15 5 -30 8 -73 8 -95z m-850 -20 c-1 -35 -2 -33 -8 15 -5 30 -8 73 -8
95 1 35 2 33 8 -15 5 -30 8 -73 8 -95z m1400 0 c-1 -35 -2 -33 -8 15 -5 30 -8
73 -8 95 1 35 2 33 8 -15 5 -30 8 -73 8 -95z m-1460 -10 c-1 -35 -2 -33 -8 15
-5 30 -8 73 -8 95 1 35 2 33 8 -15 5 -30 8 -73 8 -95z m610 -10 c-1 -35 -2
-33 -8 15 -5 30 -8 73 -8 95 1 35 2 33 8 -15 5 -30 8 -73 8 -95z m-60 -10 c-1
-35 -2 -33 -8 15 -5 30 -8 73 -8 95 1 35 2 33 8 -15 5 -30 8 -73 8 -95z m-780
-110 c-1 -22 -6 7 -13 65 -7 58 -13 123 -13 145 1 22 6 -7 13 -65 7 -58 13
-123 13 -145z m720 100 c-1 -35 -2 -33 -8 15 -5 30 -8 73 -8 95 1 35 2 33 8
-15 5 -30 8 -73 8 -95z m-790 -10 c-1 -35 -2 -33 -8 15 -5 30 -8 73 -8 95 1
35 2 33 8 -15 5 -30 8 -73 8 -95z m-60 -10 c-1 -35 -2 -33 -8 15 -5 30 -8 73
-8 95 1 35 2 33 8 -15 5 -30 8 -73 8 -95z m2070 0 c-1 -35 -2 -33 -8 15 -5 30
-8 73 -8 95 1 35 2 33 8 -15 5 -30 8 -73 8 -95z m-1460 -10 c-1 -35 -2 -33 -8
15 -5 30 -8 73 -8 95 1 35 2 33 8 -15 5 -30 8 -73 8 -95z m1400 0 c-1 -35 -2
-33 -8 15 -5 30 -8 73 -8 95 1 35 2 33 8 -15 5 -30 8 -73 8 -95z m-1460 -10
c-1 -35 -2 -33 -8 15 -5 30 -8 73 -8 95 1 35 2 33 8 -15 5 -30 8 -73 8 -95z
m610 -10 c-1 -35 -2 -33 -8 15 -5 30 -8 73 -8 95 1 35 2 33 8 -15 5 -30 8 -73
8 -95z m-60 -10 c-1 -35 -2 -33 -8 15 -5 30 -8 73 -8 95 1 35 2 33 8 -15 5
-30 8 -73 8 -95z m-850 -20 c-1 -35 -2 -33 -8 15 -5 30 -8 73 -8 95 1 35 2 33
8 -15 5 -30 8 -73 8 -95z m1400 0 c-1 -35 -2 -33 -8 15 -5 30 -8 73 -8 95 1
35 2 33 8 -15 5 -30 8 -73 8 -95z m-1460 -10 c-1 -35 -2 -33 -8 15 -5 30 -8
73 -8 95 1 35 2 33 8 -15 5 -30 8 -73 8 -95z m1400 0 c-1 -35 -2 -33 -8 15 -5
30 -8 73 -8 95 1 35 2 33 8 -15 5 -30 8 -73 8 -95z m-790 -10 c-1 -35 -2 -33
-8 15 -5 30 -8 73 -8 95 1 35 2 33 8 -15 5 -30 8 -73 8 -95z m-60 -10 c-1 -35
-2 -33 -8 15 -5 30 -8 73 -8 95 1 35 2 33 8 -15 5 -30 8 -73 8 -95z m-60 -10
c-1 -35 -2 -33 -8 15 -5 30 -8 73 -8 95 1 35 2 33 8 -15 5 -30 8 -73 8 -95z
m610 -10 c-1 -35 -2 -33 -8 15 -5 30 -8 73 -8 95 1 35 2 33 8 -15 5 -30 8 -73
8 -95z m610 -10 c-1 -35 -2 -33 -8 15 -5 30 -8 73 -8 95 1 35 2 33 8 -15 5
-30 8 -73 8 -95z m-1408 -479 c34 -319 60 -589 58 -600 -3 -24 -129 1168 -127
1199 l2 20 3 -20 c2 -11 31 -281 64 -599z m1351 494 c5 -41 16 -115 24 -165
20 -128 24 -175 17 -175 -4 0 -7 -21 -6 -47 1 -42 1 -43 -3 -8 -2 22 -8 44
-13 50 -12 15 -19 77 -25 200 -2 61 -7 146 -9 190 -5 84 -3 77 15 -45z m-1463
-35 c-1 -35 -2 -33 -8 15 -5 30 -8 73 -8 95 1 35 2 33 8 -15 5 -30 8 -73 8
-95z m-60 -10 c-1 -35 -2 -33 -8 15 -5 30 -8 73 -8 95 1 35 2 33 8 -15 5 -30
8 -73 8 -95z m670 0 c-1 -35 -2 -33 -8 15 -5 30 -8 73 -8 95 1 35 2 33 8 -15
5 -30 8 -73 8 -95z m-60 -10 c-1 -35 -2 -33 -8 15 -5 30 -8 73 -8 95 1 35 2
33 8 -15 5 -30 8 -73 8 -95z m-60 -10 c-1 -35 -2 -33 -8 15 -5 30 -8 73 -8 95
1 35 2 33 8 -15 5 -30 8 -73 8 -95z m706 -295 c9 -63 21 -160 27 -215 5 -55
12 -106 15 -114 2 -8 9 -82 14 -165 5 -83 12 -185 14 -226 4 -51 -1 -33 -13
60 -11 74 -24 167 -29 205 -6 39 -18 160 -27 270 -9 110 -25 285 -36 388 -10
104 -18 201 -18 215 1 15 10 -47 19 -138 10 -91 26 -217 34 -280z m-1496 285
c-1 -35 -2 -33 -8 15 -5 30 -8 73 -8 95 1 35 2 33 8 -15 5 -30 8 -73 8 -95z
m1400 0 c-1 -35 -2 -33 -8 15 -5 30 -8 73 -8 95 1 35 2 33 8 -15 5 -30 8 -73
8 -95z m-1460 -10 c-1 -35 -2 -33 -8 15 -5 30 -8 73 -8 95 1 35 2 33 8 -15 5
-30 8 -73 8 -95z m1400 0 c-1 -35 -2 -33 -8 15 -5 30 -8 73 -8 95 1 35 2 33 8
-15 5 -30 8 -73 8 -95z m682 -15 c30 -206 64 -526 56 -538 -9 -14 23 -304 35
-318 5 -6 12 -69 14 -140 3 -71 9 -163 14 -204 6 -41 12 -115 15 -165 4 -78 4
-82 -4 -30 -5 33 -16 130 -25 215 -9 85 -21 160 -26 166 -5 6 -11 69 -13 140
-5 146 -24 324 -36 339 -4 5 -10 44 -14 85 -4 41 -13 134 -21 205 -16 155 -28
433 -15 365 5 -25 13 -79 20 -120z m-1450 -177 c18 -166 30 -310 28 -320 -4
-19 -69 599 -67 632 2 36 8 -6 39 -312z m1378 182 c-1 -35 -2 -33 -8 15 -5 30
-8 73 -8 95 1 35 2 33 8 -15 5 -30 8 -73 8 -95z m-1440 -200 c0 -22 -9 28 -18
110 -10 83 -18 168 -18 190 0 22 9 -27 18 -110 10 -82 18 -168 18 -190z m1380
190 c-1 -35 -2 -33 -8 15 -5 30 -8 73 -8 95 1 35 2 33 8 -15 5 -30 8 -73 8
-95z m-1440 -200 c0 -22 -9 30 -19 115 -10 85 -17 171 -17 190 0 19 9 -32 18
-115 10 -82 18 -168 18 -190z m667 50 c14 -143 32 -285 40 -315 8 -30 16 -102
19 -160 7 -147 24 -307 34 -328 10 -19 36 -280 33 -327 -1 -16 5 -88 13 -160
21 -182 39 -405 34 -411 -3 -2 -8 30 -12 73 -4 43 -13 123 -21 178 -8 55 -17
136 -20 180 -3 44 -12 112 -20 150 -16 78 -34 263 -34 339 1 64 -19 239 -32
290 -6 22 -13 89 -15 149 -2 61 -15 216 -29 344 -22 205 -30 320 -19 273 2 -8
15 -132 29 -275z m-77 130 c-1 -35 -2 -33 -8 15 -5 30 -8 73 -8 95 1 35 2 33
8 -15 5 -30 8 -73 8 -95z m-60 -10 c-1 -35 -2 -33 -8 15 -5 30 -8 73 -8 95 1
35 2 33 8 -15 5 -30 8 -73 8 -95z m-770 -205 c0 -19 -9 33 -18 115 -10 83 -18
168 -18 190 0 22 9 -30 19 -115 10 -85 17 -171 17 -190z m1380 195 c-1 -35 -2
-33 -8 15 -5 30 -8 73 -8 95 1 35 2 33 8 -15 5 -30 8 -73 8 -95z m-1460 -10
c-1 -35 -2 -33 -8 15 -5 30 -8 73 -8 95 1 35 2 33 8 -15 5 -30 8 -73 8 -95z
m1400 0 c-1 -35 -2 -33 -8 15 -5 30 -8 73 -8 95 1 35 2 33 8 -15 5 -30 8 -73
8 -95z m-1440 -200 c0 -22 -9 30 -19 115 -10 85 -17 171 -17 190 0 19 9 -32
18 -115 10 -82 18 -168 18 -190z m639 268 c-2 -16 -4 -5 -4 22 0 28 2 40 4 28
2 -13 2 -35 0 -50z m-49 -88 c-1 -35 -2 -33 -8 15 -5 30 -8 73 -8 95 1 35 2
33 8 -15 5 -30 8 -73 8 -95z m-60 -10 c-1 -35 -2 -33 -8 15 -5 30 -8 73 -8 95
1 35 2 33 8 -15 5 -30 8 -73 8 -95z m711 -340 c46 -412 51 -462 51 -509 0 -27
-2 -47 -5 -45 -5 5 -31 242 -59 534 -9 88 -23 226 -31 308 -8 81 -14 159 -14
175 2 27 18 -105 58 -463z m-101 330 c-1 -35 -2 -33 -8 15 -5 30 -8 73 -8 95
1 35 2 33 8 -15 5 -30 8 -73 8 -95z m-29 -205 c4 -3 18 -104 30 -225 12 -121
24 -238 26 -260 2 -22 9 -103 15 -180 12 -157 22 -247 40 -349 11 -62 4 -193
-8 -141 -2 11 -8 25 -13 30 -4 6 -11 65 -14 130 -5 107 -17 221 -45 440 -27
206 -60 533 -55 552 3 12 -2 84 -10 159 -8 75 -14 148 -14 162 1 15 10 -49 21
-143 11 -93 23 -172 27 -175z m628 273 c-2 -16 -4 -5 -4 22 0 28 2 40 4 28 2
-13 2 -35 0 -50z m-1509 -98 c-1 -35 -2 -33 -8 15 -5 30 -8 73 -8 95 1 35 2
33 8 -15 5 -30 8 -73 8 -95z m-60 -10 c-1 -35 -2 -33 -8 15 -5 30 -8 73 -8 95
1 35 2 33 8 -15 5 -30 8 -73 8 -95z m690 -195 c0 -19 -9 33 -18 115 -10 83
-18 168 -18 190 0 22 9 -30 19 -115 10 -85 17 -171 17 -190z m-80 185 c-1 -35
-2 -33 -8 15 -5 30 -8 73 -8 95 1 35 2 33 8 -15 5 -30 8 -73 8 -95z m-60 -10
c-1 -35 -2 -33 -8 15 -5 30 -8 73 -8 95 1 35 2 33 8 -15 5 -30 8 -73 8 -95z
m-790 -10 c-1 -35 -2 -33 -8 15 -5 30 -8 73 -8 95 1 35 2 33 8 -15 5 -30 8
-73 8 -95z m740 -90 c0 -22 -6 5 -13 60 -7 55 -13 118 -13 140 0 22 6 -5 13
-60 7 -55 13 -118 13 -140z m660 90 c-1 -35 -2 -33 -8 15 -5 30 -8 73 -8 95 1
35 2 33 8 -15 5 -30 8 -73 8 -95z m-1460 -10 c-1 -35 -2 -33 -8 15 -5 30 -8
73 -8 95 1 35 2 33 8 -15 5 -30 8 -73 8 -95z m1400 0 c-1 -35 -2 -33 -8 15 -5
30 -8 73 -8 95 1 35 2 33 8 -15 5 -30 8 -73 8 -95z m631 -115 c25 -159 30
-228 22 -270 -8 -39 -9 -41 -10 -13 -1 17 -5 33 -11 35 -8 2 -43 439 -39 488
1 8 8 -28 15 -80 7 -52 18 -124 23 -160z m-66 43 c4 -6 9 -57 11 -114 3 -57 8
-137 10 -179 5 -74 5 -74 -8 20 -7 52 -18 127 -24 165 -6 39 -13 124 -15 190
l-5 120 12 -96 c7 -53 16 -100 19 -106z m-61 23 c5 -11 12 -62 13 -115 2 -53
6 -139 9 -191 l5 -95 -10 80 c-5 44 -16 106 -25 138 -8 34 -16 119 -18 205 -3
128 -2 137 6 72 5 -41 14 -84 20 -94z m-804 9 c-1 -35 -2 -33 -8 15 -5 30 -8
73 -8 95 1 35 2 33 8 -15 5 -30 8 -73 8 -95z m-60 -10 c-1 -35 -2 -33 -8 15
-5 30 -8 73 -8 95 1 35 2 33 8 -15 5 -30 8 -73 8 -95z m-850 -20 c-1 -35 -2
-33 -8 15 -5 30 -8 73 -8 95 1 35 2 33 8 -15 5 -30 8 -73 8 -95z m1431 -181
c5 -12 14 -95 20 -185 15 -221 30 -370 47 -454 7 -38 16 -110 19 -160 3 -49 9
-124 15 -165 11 -87 17 -164 24 -310 4 -86 3 -95 -4 -50 -13 78 -27 184 -45
345 -8 77 -19 165 -25 195 -5 30 -12 116 -15 190 -3 74 -10 162 -15 195 -33
214 -50 355 -47 385 2 19 -2 91 -9 160 -8 69 -13 139 -13 155 1 17 10 -40 20
-125 10 -85 22 -165 28 -176z m579 171 c-1 -35 -2 -33 -8 15 -5 30 -8 73 -8
95 1 35 2 33 8 -15 5 -30 8 -73 8 -95z m-1460 -10 c-1 -35 -2 -33 -8 15 -5 30
-8 73 -8 95 1 35 2 33 8 -15 5 -30 8 -73 8 -95z m1432 -180 c5 -38 8 -75 6
-81 -6 -17 23 -304 33 -334 14 -37 21 -124 14 -166 l-6 -37 -13 51 c-8 29 -14
82 -15 119 -2 99 -28 344 -40 373 -5 14 -11 68 -13 120 -2 52 -6 138 -9 190
l-6 95 20 -130 c11 -71 24 -161 29 -200z m-2233 248 c-2 -16 -4 -5 -4 22 0 28
2 40 4 28 2 -13 2 -35 0 -50z m741 -78 c-1 -35 -2 -33 -8 15 -5 30 -8 73 -8
95 1 35 2 33 8 -15 5 -30 8 -73 8 -95z m-300 -40 c-1 -35 -2 -33 -8 15 -5 30
-8 73 -8 95 1 35 2 33 8 -15 5 -30 8 -73 8 -95z m-60 -10 c-1 -35 -2 -33 -8
15 -5 30 -8 73 -8 95 1 35 2 33 8 -15 5 -30 8 -73 8 -95z m610 -10 c-1 -35 -2
-33 -8 15 -5 30 -8 73 -8 95 1 35 2 33 8 -15 5 -30 8 -73 8 -95z m-60 -10 c-1
-35 -2 -33 -8 15 -5 30 -8 73 -8 95 1 35 2 33 8 -15 5 -30 8 -73 8 -95z m-790
-10 c-1 -35 -2 -33 -8 15 -5 30 -8 73 -8 95 1 35 2 33 8 -15 5 -30 8 -73 8
-95z m1400 0 c-1 -35 -2 -33 -8 15 -5 30 -8 73 -8 95 1 35 2 33 8 -15 5 -30 8
-73 8 -95z m-1460 -10 c-1 -35 -2 -33 -8 15 -5 30 -8 73 -8 95 1 35 2 33 8
-15 5 -30 8 -73 8 -95z m1411 -70 c39 -369 51 -469 66 -570 25 -164 47 -368
42 -394 -5 -23 19 -266 48 -496 18 -147 35 -341 34 -381 -2 -35 -36 210 -44
316 -13 164 -46 468 -56 515 -21 100 -52 417 -51 515 0 8 -8 94 -19 190 -38
356 -49 466 -48 495 1 54 7 14 28 -190z m-1471 60 c-1 -35 -2 -33 -8 15 -5 30
-8 73 -8 95 1 35 2 33 8 -15 5 -30 8 -73 8 -95z m610 -10 c-1 -35 -2 -33 -8
15 -5 30 -8 73 -8 95 1 35 2 33 8 -15 5 -30 8 -73 8 -95z m-60 -10 c-1 -35 -2
-33 -8 15 -5 30 -8 73 -8 95 1 35 2 33 8 -15 5 -30 8 -73 8 -95z m610 -10 c-1
-35 -2 -33 -8 15 -5 30 -8 73 -8 95 1 35 2 33 8 -15 5 -30 8 -73 8 -95z m-60
-10 c-1 -35 -2 -33 -8 15 -5 30 -8 73 -8 95 1 35 2 33 8 -15 5 -30 8 -73 8
-95z m-758 -289 c23 -214 40 -398 38 -410 -3 -23 -89 787 -87 819 l2 20 3 -20
c2 -11 22 -195 44 -409z m-92 269 c-1 -35 -2 -33 -8 15 -5 30 -8 73 -8 95 1
35 2 33 8 -15 5 -30 8 -73 8 -95z m-60 -10 c-1 -35 -2 -33 -8 15 -5 30 -8 73
-8 95 1 35 2 33 8 -15 5 -30 8 -73 8 -95z m659 78 c-2 -16 -4 -5 -4 22 0 28 2
40 4 28 2 -13 2 -35 0 -50z m1413 7 c5 -3 16 -110 24 -238 8 -127 20 -240 25
-251 6 -10 13 -72 15 -137 6 -142 43 -481 56 -509 13 -30 42 -342 45 -485 2
-86 0 -108 -5 -69 -4 31 -11 62 -15 69 -9 15 -45 339 -50 465 -7 153 -35 426
-51 502 -8 39 -15 105 -15 145 -1 67 -6 115 -29 268 -26 168 -29 209 -23 255
6 41 8 44 11 20 2 -16 8 -32 12 -35z m-1462 -95 c-1 -35 -2 -33 -8 15 -5 30
-8 73 -8 95 1 35 2 33 8 -15 5 -30 8 -73 8 -95z m-60 -10 c-1 -35 -2 -33 -8
15 -5 30 -8 73 -8 95 1 35 2 33 8 -15 5 -30 8 -73 8 -95z m1160 -30 c-1 -35
-2 -33 -8 15 -5 30 -8 73 -8 95 1 35 2 33 8 -15 5 -30 8 -73 8 -95z m-1460
-10 c-1 -35 -2 -33 -8 15 -5 30 -8 73 -8 95 1 35 2 33 8 -15 5 -30 8 -73 8
-95z m-40 -200 c0 -22 -9 28 -18 110 -10 83 -18 168 -18 190 0 22 9 -27 18
-110 10 -82 18 -168 18 -190z m639 268 c-2 -16 -4 -5 -4 22 0 28 2 40 4 28 2
-13 2 -35 0 -50z m-28 -248 c23 -224 26 -315 5 -155 -7 58 -18 141 -23 185 -6
44 -13 125 -15 180 -6 132 6 61 33 -210z m-81 150 c-1 -35 -2 -33 -8 15 -5 30
-8 73 -8 95 1 35 2 33 8 -15 5 -30 8 -73 8 -95z m-770 -200 c0 -22 -9 28 -18
110 -10 83 -18 168 -18 190 0 22 9 -27 18 -110 10 -82 18 -168 18 -190z m726
55 l5 -95 -13 95 c-8 52 -16 138 -19 190 l-6 95 14 -95 c7 -52 16 -138 19
-190z m691 -55 c15 -143 29 -291 31 -330 7 -141 25 -344 44 -505 11 -91 26
-221 34 -290 12 -111 30 -390 20 -315 -3 17 -11 73 -19 125 -7 52 -19 156 -25
230 -29 345 -57 588 -80 715 -21 110 -71 632 -64 669 l6 40 13 -40 c7 -21 25
-156 40 -299z m-1497 180 c-1 -35 -2 -33 -8 15 -5 30 -8 73 -8 95 1 35 2 33 8
-15 5 -30 8 -73 8 -95z m-60 -10 c-1 -35 -2 -33 -8 15 -5 30 -8 73 -8 95 1 35
2 33 8 -15 5 -30 8 -73 8 -95z m610 -10 c-1 -35 -2 -33 -8 15 -5 30 -8 73 -8
95 1 35 2 33 8 -15 5 -30 8 -73 8 -95z m-60 -10 c-1 -35 -2 -33 -8 15 -5 30
-8 73 -8 95 1 35 2 33 8 -15 5 -30 8 -73 8 -95z m621 -20 c24 -176 41 -348 52
-505 6 -91 14 -167 18 -170 11 -6 31 -203 37 -343 2 -60 9 -117 15 -129 6 -11
12 -86 14 -166 2 -92 0 -126 -5 -92 -4 30 -12 71 -18 90 -7 19 -14 91 -17 160
-3 69 -9 136 -15 150 -12 32 -43 318 -35 330 5 8 -3 88 -25 240 -8 57 -35 323
-48 470 -8 97 -3 149 9 85 4 -22 12 -76 18 -120z m-921 -20 c-1 -35 -2 -33 -8
15 -5 30 -8 73 -8 95 1 35 2 33 8 -15 5 -30 8 -73 8 -95z m-60 -10 c-1 -35 -2
-33 -8 15 -5 30 -8 73 -8 95 1 35 2 33 8 -15 5 -30 8 -73 8 -95z m622 -85 c23
-220 35 -315 56 -445 26 -166 95 -869 98 -1005 3 -131 3 -133 -7 -50 -5 47
-13 87 -17 90 -8 5 -99 846 -105 975 -5 94 -21 287 -35 400 -10 91 -21 268
-15 245 2 -8 13 -103 25 -210z m-72 65 c-1 -35 -2 -33 -8 15 -5 30 -8 73 -8
95 1 35 2 33 8 -15 5 -30 8 -73 8 -95z m-40 -200 c0 -22 -9 30 -19 115 -10 85
-17 171 -17 190 0 19 9 -32 18 -115 10 -82 18 -168 18 -190z m-260 160 c-1
-35 -2 -33 -8 15 -5 30 -8 73 -8 95 1 35 2 33 8 -15 5 -30 8 -73 8 -95z m-360
-50 c-1 -35 -2 -33 -8 15 -5 30 -8 73 -8 95 1 35 2 33 8 -15 5 -30 8 -73 8
-95z m-60 -10 c-1 -35 -2 -33 -8 15 -5 30 -8 73 -8 95 1 35 2 33 8 -15 5 -30
8 -73 8 -95z m2070 0 c-1 -35 -2 -33 -8 15 -5 30 -8 73 -8 95 1 35 2 33 8 -15
5 -30 8 -73 8 -95z m-1460 -10 c-1 -35 -2 -33 -8 15 -5 30 -8 73 -8 95 1 35 2
33 8 -15 5 -30 8 -73 8 -95z m1415 -135 c6 -94 6 -93 -13 40 -10 74 -18 160
-18 190 0 47 2 41 13 -40 7 -52 15 -138 18 -190z m-1475 125 c-1 -35 -2 -33
-8 15 -5 30 -8 73 -8 95 1 35 2 33 8 -15 5 -30 8 -73 8 -95z m-300 -40 c-1
-35 -2 -33 -8 15 -5 30 -8 73 -8 95 1 35 2 33 8 -15 5 -30 8 -73 8 -95z m-60
-10 c-1 -35 -2 -33 -8 15 -5 30 -8 73 -8 95 1 35 2 33 8 -15 5 -30 8 -73 8
-95z m557 -15 c8 -47 17 -123 19 -170 3 -47 7 -123 10 -170 4 -68 2 -58 -13
51 -10 75 -21 140 -24 146 -3 5 -8 72 -10 149 -2 76 -3 126 -1 109 2 -16 11
-68 19 -115z m-808 63 c-2 -16 -4 -5 -4 22 0 28 2 40 4 28 2 -13 2 -35 0 -50z
m501 -108 c-1 -35 -2 -33 -8 15 -5 30 -8 73 -8 95 1 35 2 33 8 -15 5 -30 8
-73 8 -95z m-60 -10 c-1 -35 -2 -33 -8 15 -5 30 -8 73 -8 95 1 35 2 33 8 -15
5 -30 8 -73 8 -95z m-251 48 c-2 -16 -4 -5 -4 22 0 28 2 40 4 28 2 -13 2 -35
0 -50z m741 -78 c-1 -35 -2 -33 -8 15 -5 30 -8 73 -8 95 1 35 2 33 8 -15 5
-30 8 -73 8 -95z m-790 -10 c-1 -35 -2 -33 -8 15 -5 30 -8 73 -8 95 1 35 2 33
8 -15 5 -30 8 -73 8 -95z m-60 -10 c-1 -35 -2 -33 -8 15 -5 30 -8 73 -8 95 1
35 2 33 8 -15 5 -30 8 -73 8 -95z m2071 33 c6 -62 20 -200 31 -306 11 -106 20
-205 19 -220 -1 -37 -68 542 -69 596 0 74 7 46 19 -70z m-2131 -43 c-1 -35 -2
-33 -8 15 -5 30 -8 73 -8 95 1 35 2 33 8 -15 5 -30 8 -73 8 -95z m670 0 c-1
-35 -2 -33 -8 15 -5 30 -8 73 -8 95 1 35 2 33 8 -15 5 -30 8 -73 8 -95z m-60
-10 c-1 -35 -2 -33 -8 15 -5 30 -8 73 -8 95 1 35 2 33 8 -15 5 -30 8 -73 8
-95z m-300 -40 c-1 -35 -2 -33 -8 15 -5 30 -8 73 -8 95 1 35 2 33 8 -15 5 -30
8 -73 8 -95z m-60 -10 c-1 -35 -2 -33 -8 15 -5 30 -8 73 -8 95 1 35 2 33 8
-15 5 -30 8 -73 8 -95z m-40 -200 c0 -22 -9 30 -19 115 -10 85 -17 171 -17
190 0 19 9 -32 18 -115 10 -82 18 -168 18 -190z m530 170 c-1 -35 -2 -33 -8
15 -5 30 -8 73 -8 95 1 35 2 33 8 -15 5 -30 8 -73 8 -95z m-240 -30 c-1 -35
-2 -33 -8 15 -5 30 -8 73 -8 95 1 35 2 33 8 -15 5 -30 8 -73 8 -95z m-60 -10
c-1 -35 -2 -33 -8 15 -5 30 -8 73 -8 95 1 35 2 33 8 -15 5 -30 8 -73 8 -95z
m510 -220 c0 -22 -9 30 -19 115 -10 85 -17 171 -17 190 0 19 9 -32 18 -115 10
-82 18 -168 18 -190z m-810 180 c-1 -35 -2 -33 -8 15 -5 30 -8 73 -8 95 1 35
2 33 8 -15 5 -30 8 -73 8 -95z m-60 -10 c-1 -35 -2 -33 -8 15 -5 30 -8 73 -8
95 1 35 2 33 8 -15 5 -30 8 -73 8 -95z m1400 0 c-1 -35 -2 -33 -8 15 -5 30 -8
73 -8 95 1 35 2 33 8 -15 5 -30 8 -73 8 -95z m-1460 -10 c-1 -35 -2 -33 -8 15
-5 30 -8 73 -8 95 1 35 2 33 8 -15 5 -30 8 -73 8 -95z m681 20 c23 -186 31
-280 37 -390 2 -60 9 -123 15 -140 13 -38 77 -645 69 -650 -4 -2 -6 -30 -4
-62 l3 -58 -7 50 c-4 28 -11 56 -15 63 -12 18 -66 533 -72 679 -2 67 -9 130
-14 140 -17 33 -56 449 -44 479 10 27 19 -2 32 -111z m1405 -160 c3 -49 4 -85
1 -80 -7 16 -35 294 -34 334 2 47 26 -137 33 -254z m-1476 130 c-1 -35 -2 -33
-8 15 -5 30 -8 73 -8 95 1 35 2 33 8 -15 5 -30 8 -73 8 -95z m-38 -150 c15
-84 39 -272 49 -385 5 -52 21 -208 36 -346 17 -153 25 -262 20 -280 l-8 -29
-12 30 c-6 17 -22 134 -34 260 -12 127 -28 286 -36 355 -27 237 -37 339 -31
348 3 5 -1 69 -9 143 -8 74 -14 148 -14 164 1 17 7 -22 15 -85 8 -63 18 -142
24 -175z m-242 -85 c0 -19 -9 33 -18 115 -10 83 -18 168 -18 190 0 22 9 -30
19 -115 10 -85 17 -171 17 -190z m-80 185 c-1 -35 -2 -33 -8 15 -5 30 -8 73
-8 95 1 35 2 33 8 -15 5 -30 8 -73 8 -95z m1402 28 c6 -65 20 -187 31 -272 26
-205 39 -335 43 -456 3 -72 2 -86 -4 -50 -22 142 -41 311 -55 476 -8 101 -19
218 -25 259 -10 77 -13 160 -6 160 2 0 9 -53 16 -117z m-890 -158 c14 -32 90
-796 94 -945 4 -141 3 -137 -28 65 -18 120 -96 849 -94 885 1 14 -1 75 -5 135
l-6 110 15 -115 c9 -63 20 -124 24 -135z m-239 -105 c16 -146 38 -332 49 -415
50 -389 71 -608 61 -649 -5 -23 -9 -31 -10 -18 -1 12 -5 30 -10 40 -10 17 -34
254 -66 632 -9 107 -27 305 -41 440 -13 135 -23 256 -23 270 2 33 3 28 40
-300z m-83 165 c-1 -35 -2 -33 -8 15 -5 30 -8 73 -8 95 1 35 2 33 8 -15 5 -30
8 -73 8 -95z m-300 -40 c-1 -35 -2 -33 -8 15 -5 30 -8 73 -8 95 1 35 2 33 8
-15 5 -30 8 -73 8 -95z m-60 -10 c-1 -35 -2 -33 -8 15 -5 30 -8 73 -8 95 1 35
2 33 8 -15 5 -30 8 -73 8 -95z m1423 -81 c5 -17 11 -101 13 -185 3 -137 2
-145 -6 -74 -6 44 -14 82 -18 85 -5 3 -14 77 -19 165 -15 213 -12 265 6 140 7
-55 18 -114 24 -131z m-1483 71 c-1 -35 -2 -33 -8 15 -5 30 -8 73 -8 95 1 35
2 33 8 -15 5 -30 8 -73 8 -95z m610 -10 c-1 -35 -2 -33 -8 15 -5 30 -8 73 -8
95 1 35 2 33 8 -15 5 -30 8 -73 8 -95z m-360 -50 c-1 -35 -2 -33 -8 15 -5 30
-8 73 -8 95 1 35 2 33 8 -15 5 -30 8 -73 8 -95z m-60 -10 c-1 -35 -2 -33 -8
15 -5 30 -8 73 -8 95 1 35 2 33 8 -15 5 -30 8 -73 8 -95z m610 -10 c-1 -35 -2
-33 -8 15 -5 30 -8 73 -8 95 1 35 2 33 8 -15 5 -30 8 -73 8 -95z m-838 -105
c47 -444 60 -575 59 -599 -1 -14 -8 26 -15 89 -42 357 -86 831 -68 725 2 -11
13 -108 24 -215z m478 55 c-1 -35 -2 -33 -8 15 -5 30 -8 73 -8 95 1 35 2 33 8
-15 5 -30 8 -73 8 -95z m490 -30 c-1 -35 -2 -33 -8 15 -5 30 -8 73 -8 95 1 35
2 33 8 -15 5 -30 8 -73 8 -95z m-773 -140 c14 -133 24 -252 24 -265 -2 -37
-46 350 -52 455 -8 131 -1 81 28 -190z m-77 120 c-1 -35 -2 -33 -8 15 -5 30
-8 73 -8 95 1 35 2 33 8 -15 5 -30 8 -73 8 -95z m-40 -200 c0 -22 -9 30 -19
115 -10 85 -17 171 -17 190 0 19 9 -32 18 -115 10 -82 18 -168 18 -190z m2050
190 c-1 -35 -2 -33 -8 15 -5 30 -8 73 -8 95 1 35 2 33 8 -15 5 -30 8 -73 8
-95z m-1435 -145 c11 -23 74 -639 65 -642 -4 -2 -3 -34 2 -73 5 -38 9 -86 8
-105 0 -19 -6 8 -12 60 -7 52 -18 113 -24 135 -14 51 -62 517 -67 650 -2 55
-5 136 -8 180 -4 52 0 33 12 -55 9 -74 20 -142 24 -150z m-336 173 c-2 -16 -4
-5 -4 22 0 28 2 40 4 28 2 -13 2 -35 0 -50z m-49 -88 c-1 -35 -2 -33 -8 15 -5
30 -8 73 -8 95 1 35 2 33 8 -15 5 -30 8 -73 8 -95z m-57 39 c5 -6 14 -81 19
-165 5 -85 11 -188 14 -229 3 -42 -3 -14 -13 65 -10 77 -22 151 -25 165 -10
40 -23 160 -17 160 3 0 6 21 5 47 -1 42 -1 43 3 8 2 -22 9 -45 14 -51z m1947
36 c3 -8 13 -82 22 -165 16 -142 14 -183 -10 -159 -14 14 -42 282 -34 329 4
22 9 33 11 25 3 -8 7 -22 11 -30z m-790 -115 c-1 -35 -2 -33 -8 15 -5 30 -8
73 -8 95 1 35 2 33 8 -15 5 -30 8 -73 8 -95z m-398 -170 c14 -31 31 -211 34
-363 3 -133 3 -134 -7 -52 -5 47 -13 87 -17 90 -11 7 -32 203 -35 320 -1 52
-5 133 -8 180 -5 67 -3 59 9 -35 8 -66 19 -129 24 -140z m-872 90 c-1 -35 -2
-33 -8 15 -5 30 -8 73 -8 95 1 35 2 33 8 -15 5 -30 8 -73 8 -95z m20 -190 c-1
-35 -2 -33 -8 15 -5 30 -8 73 -8 95 1 35 2 33 8 -15 5 -30 8 -73 8 -95z m1400
0 c-1 -35 -2 -33 -8 15 -5 30 -8 73 -8 95 1 35 2 33 8 -15 5 -30 8 -73 8 -95z
m-1440 -200 c0 -22 -9 28 -18 110 -10 83 -18 168 -18 190 0 22 9 -27 18 -110
10 -82 18 -168 18 -190z m2132 101 c5 -7 12 -59 15 -116 4 -58 12 -148 20
-200 7 -52 13 -140 13 -195 -1 -87 -2 -93 -8 -45 -4 30 -12 67 -18 82 -6 15
-14 78 -17 140 -3 62 -11 133 -16 158 -6 25 -12 108 -14 185 -2 118 -1 129 6
71 5 -38 13 -74 19 -80z m-862 -21 c-1 -35 -2 -33 -8 15 -5 30 -8 73 -8 95 1
35 2 33 8 -15 5 -30 8 -73 8 -95z m-1161 18 c-2 -16 -4 -5 -4 22 0 28 2 40 4
28 2 -13 2 -35 0 -50z m-49 -88 c-1 -35 -2 -33 -8 15 -5 30 -8 73 -8 95 1 35
2 33 8 -15 5 -30 8 -73 8 -95z m1590 -70 c-1 -35 -2 -33 -8 15 -5 30 -8 73 -8
95 1 35 2 33 8 -15 5 -30 8 -73 8 -95z m-1690 -140 c-1 -35 -2 -33 -8 15 -5
30 -8 73 -8 95 1 35 2 33 8 -15 5 -30 8 -73 8 -95z m1707 38 c3 -32 8 -70 10
-85 2 -15 0 -30 -5 -33 -5 -3 -11 21 -15 52 -3 32 -8 73 -11 91 -3 17 -1 32 5
32 5 0 12 -26 16 -57z m-57 -98 c-1 -35 -2 -33 -8 15 -5 30 -8 73 -8 95 1 35
2 33 8 -15 5 -30 8 -73 8 -95z m-660 -90 c-1 -35 -2 -33 -8 15 -5 30 -8 73 -8
95 1 35 2 33 8 -15 5 -30 8 -73 8 -95z m-60 -10 c-1 -35 -2 -33 -8 15 -5 30
-8 73 -8 95 1 35 2 33 8 -15 5 -30 8 -73 8 -95z m-300 -40 c-1 -35 -2 -33 -8
15 -5 30 -8 73 -8 95 1 35 2 33 8 -15 5 -30 8 -73 8 -95z m190 -70 c-1 -35 -2
-33 -8 15 -5 30 -8 73 -8 95 1 35 2 33 8 -15 5 -30 8 -73 8 -95z"/>
<path d="M2406 4663 c3 -38 10 -81 15 -97 12 -37 57 -461 68 -646 14 -210 41
-472 52 -495 5 -11 20 -130 34 -265 43 -428 143 -1381 155 -1480 7 -52 13
-145 15 -207 3 -105 14 -198 36 -318 11 -62 29 -219 83 -737 23 -224 45 -411
49 -414 16 -16 17 11 3 142 -24 220 -50 540 -60 724 -5 91 -2 72 31 -185 14
-110 29 -229 34 -265 4 -36 17 -143 27 -238 11 -95 22 -176 26 -179 15 -15 17
11 7 96 -5 51 -8 98 -5 106 7 18 -23 279 -37 322 -5 17 -12 80 -14 140 -2 59
-6 149 -9 198 -4 80 -3 76 11 -40 9 -71 20 -132 24 -135 5 -3 13 -80 19 -170
13 -223 21 -303 30 -315 4 -5 10 -37 14 -70 12 -114 17 -135 32 -135 8 0 14
10 14 26 0 55 -32 320 -40 336 -5 9 -14 85 -20 170 -7 84 -14 156 -16 159 -9
15 -33 281 -38 414 -4 108 -3 130 5 95 18 -83 55 -378 64 -520 3 -52 11 -115
16 -140 6 -24 12 -92 14 -150 3 -109 8 -165 26 -307 8 -63 15 -83 26 -83 13 0
15 21 10 153 -6 162 -5 167 13 42 17 -120 33 -195 42 -195 11 0 11 -1 -7 200
-39 462 -57 649 -65 690 -13 60 -30 263 -29 325 1 46 2 44 14 -30 7 -44 18
-136 24 -205 29 -308 53 -521 66 -595 8 -44 22 -149 31 -232 9 -84 21 -153 26
-153 11 0 11 13 -16 289 -13 135 -23 262 -23 281 1 19 -2 78 -5 130 l-7 95 15
-115 c8 -63 19 -124 23 -135 5 -11 19 -114 31 -230 12 -116 24 -234 27 -262 3
-30 11 -53 17 -53 9 0 1 101 -26 353 -20 193 -42 428 -48 520 -5 93 -12 201
-15 240 -3 51 0 40 10 -38 8 -60 21 -148 30 -195 14 -81 25 -179 76 -667 17
-158 26 -213 35 -213 9 0 12 9 9 28 -11 62 -125 1189 -135 1332 -13 183 -27
317 -35 330 -12 20 -65 559 -69 695 -3 137 -3 138 7 50 5 -49 13 -92 18 -95
10 -7 69 -558 69 -649 1 -64 7 -121 49 -436 11 -82 45 -399 77 -702 42 -400
62 -553 70 -553 9 0 11 11 8 32 -6 44 -149 1429 -164 1588 -6 69 -18 175 -25
235 -30 236 -45 406 -48 540 -4 137 -4 138 6 50 5 -49 13 -92 17 -95 5 -3 20
-122 35 -265 14 -143 37 -359 50 -480 30 -265 151 -1419 161 -1527 5 -57 11
-78 21 -78 10 0 13 9 9 33 -3 17 -10 84 -16 147 -6 63 -15 151 -20 195 -15
122 -47 447 -65 660 -24 288 -45 487 -56 520 -12 41 -82 716 -81 790 1 81 -56
625 -68 650 -11 24 -119 1054 -119 1140 0 33 -14 179 -31 325 -16 145 -30 265
-30 267 0 2 -9 3 -20 3 -11 0 -20 -2 -20 -4 0 -20 53 -506 60 -556 6 -36 41
-348 78 -695 49 -452 66 -647 61 -690 -6 -57 -6 -57 -8 -14 0 25 -6 50 -11 55
-11 11 -133 1151 -145 1349 -4 61 -17 207 -31 325 -13 118 -24 218 -24 223 0
4 -9 7 -20 7 -11 0 -20 -4 -20 -8 0 -36 42 -430 47 -442 10 -23 161 -1455 154
-1457 -3 -2 -6 -24 -5 -50 1 -42 1 -43 -3 -8 -2 22 -9 45 -14 51 -10 13 -162
1431 -155 1450 3 7 -6 109 -19 226 -14 117 -25 219 -25 226 0 6 -9 12 -20 12
-12 0 -20 -7 -20 -17 0 -50 42 -431 50 -448 13 -30 181 -1663 185 -1798 2 -65
8 -124 14 -131 11 -13 67 -524 76 -691 3 -55 12 -173 21 -263 8 -89 14 -170
12 -180 -2 -9 -9 39 -17 108 -7 69 -22 186 -32 260 -34 235 -79 660 -83 789
-2 68 -8 126 -13 130 -9 6 -189 1709 -192 1816 -1 28 -11 129 -21 225 -11 96
-20 180 -20 187 0 7 -9 13 -20 13 -14 0 -20 -7 -20 -22 0 -52 21 -245 30 -273
5 -16 54 -457 109 -980 72 -693 97 -962 91 -995 -5 -31 -8 -36 -9 -17 0 15 -5
35 -11 45 -11 19 -200 1806 -205 1938 -2 44 -8 131 -15 192 -11 98 -15 112
-31 112 -14 0 -19 -7 -19 -30 0 -54 20 -234 30 -270 9 -31 100 -883 259 -2420
65 -624 67 -647 60 -700 l-6 -45 -1 40 c-1 23 -6 45 -11 50 -5 6 -11 33 -14
60 -2 28 -73 694 -156 1480 -84 787 -153 1468 -155 1515 -2 47 -9 138 -16 203
-12 109 -15 117 -35 117 -18 0 -21 -5 -18 -27 15 -138 35 -286 38 -296 3 -7
57 -509 120 -1117 64 -608 125 -1188 136 -1290 11 -102 24 -246 29 -320 6 -74
15 -157 20 -185 10 -49 73 -641 86 -800 3 -43 11 -130 18 -193 7 -63 9 -133 6
-155 l-6 -42 -7 40 c-16 91 -93 783 -135 1220 -6 55 -73 694 -151 1420 -77
726 -143 1358 -146 1405 -3 47 -10 135 -15 195 -5 61 -10 118 -10 128 0 11 -8
17 -25 17 -21 0 -24 -4 -20 -27 2 -16 9 -71 15 -123 7 -52 16 -119 21 -148 4
-29 38 -335 74 -680 36 -345 74 -708 85 -807 47 -431 149 -1423 148 -1450 -1
-16 2 -79 5 -140 l6 -110 -15 115 c-9 63 -20 124 -24 135 -7 16 -108 953 -160
1482 -5 49 -40 387 -78 753 -39 366 -73 708 -76 760 -15 235 -16 240 -43 240
-21 0 -24 -4 -19 -27 3 -16 11 -89 17 -163 7 -74 15 -137 19 -140 4 -3 19
-124 34 -270 15 -146 31 -301 36 -345 16 -124 67 -644 80 -800 7 -77 18 -185
26 -240 28 -204 112 -1043 112 -1117 1 -43 7 -102 16 -130 8 -29 17 -93 21
-143 3 -49 7 -110 10 -135 6 -50 -10 -92 -18 -49 -15 75 -36 274 -36 338 1 40
-6 103 -15 140 -15 58 -94 781 -111 1011 -9 129 -15 185 -31 310 -25 201 -43
357 -74 660 -16 162 -41 398 -55 524 -14 126 -23 238 -20 250 2 11 -3 89 -13
171 -16 142 -18 150 -40 153 -22 3 -22 1 -16 -55 3 -32 12 -89 19 -128 15 -74
66 -552 67 -620 0 -41 28 -304 53 -500 7 -60 19 -173 26 -250 6 -77 18 -196
26 -265 7 -69 18 -168 24 -220 5 -52 14 -131 19 -175 36 -288 101 -929 105
-1027 3 -65 10 -129 15 -142 18 -47 41 -319 31 -361 -7 -30 -9 -33 -10 -15 -1
15 -5 30 -10 35 -10 12 -30 203 -36 352 -3 62 -9 121 -14 130 -11 20 -98 836
-107 1002 -3 58 -9 112 -14 121 -5 10 -12 68 -15 131 -3 63 -7 132 -10 154 -3
22 -14 117 -25 210 -12 94 -23 177 -25 185 -2 8 -7 58 -10 110 -3 52 -10 133
-15 180 -5 47 -12 121 -15 165 -3 44 -13 116 -20 160 -18 104 -64 550 -70 684
-6 124 -10 141 -36 141 -18 0 -19 -5 -13 -67z m762 -2088 c-1 -35 -2 -33 -8
15 -5 30 -8 73 -8 95 1 35 2 33 8 -15 5 -30 8 -73 8 -95z m-60 -10 c-1 -35 -2
-33 -8 15 -5 30 -8 73 -8 95 1 35 2 33 8 -15 5 -30 8 -73 8 -95z m-88 -235
c10 -6 86 -730 95 -905 4 -66 13 -171 21 -233 14 -112 18 -210 9 -201 -2 3
-11 77 -20 165 -15 163 -29 271 -46 359 -20 107 -85 792 -80 845 5 52 6 53 9
15 2 -22 7 -42 12 -45z m-112 -1335 c-1 -35 -2 -33 -8 15 -5 30 -8 73 -8 95 1
35 2 33 8 -15 5 -30 8 -73 8 -95z m260 -160 c-1 -35 -2 -33 -8 15 -5 30 -8 73
-8 95 1 35 2 33 8 -15 5 -30 8 -73 8 -95z"/>
<path d="M3014 4688 c3 -24 15 -142 26 -263 11 -121 27 -251 35 -290 19 -88
128 -1132 120 -1146 -8 -13 54 -610 65 -631 11 -19 89 -744 89 -823 0 -52 18
-223 50 -480 21 -169 60 -517 92 -830 20 -190 29 -238 43 -224 3 3 -4 90 -14
194 -11 105 -29 276 -40 380 -10 105 -24 251 -30 325 -6 74 -15 158 -20 185
-5 28 -12 100 -14 160 -3 61 -7 144 -10 185 -3 46 1 25 12 -55 9 -71 20 -135
24 -140 3 -6 9 -53 13 -105 3 -52 17 -185 30 -295 13 -110 29 -249 36 -310 55
-525 57 -540 74 -523 3 2 -8 137 -25 299 -53 526 -59 591 -76 779 -8 102 -20
221 -25 265 -6 44 -16 140 -24 214 -8 73 -19 161 -25 195 -11 70 -48 421 -48
451 0 11 -2 74 -5 140 -5 98 -4 109 4 60 34 -211 55 -380 69 -545 26 -336 71
-773 96 -930 8 -52 17 -138 20 -190 3 -52 8 -98 10 -102 3 -4 20 -147 38 -318
18 -171 36 -314 40 -317 3 -3 8 -4 11 -1 3 3 -14 198 -39 434 -24 236 -47 481
-51 544 -3 63 -10 153 -15 200 -5 47 -17 152 -25 234 -9 82 -17 152 -19 155
-2 3 -10 75 -16 159 -7 83 -16 152 -20 152 -11 0 -32 228 -35 370 -2 123 -2
124 8 45 5 -44 12 -82 17 -85 10 -6 31 -207 35 -333 2 -53 8 -137 14 -185 6
-48 16 -136 22 -197 21 -220 39 -382 54 -485 8 -58 37 -307 64 -553 27 -246
51 -451 55 -454 3 -4 9 -4 12 -1 3 4 -22 265 -55 581 -34 316 -63 624 -66 684
-3 59 -9 119 -14 133 -12 30 -49 381 -56 535 -4 60 -10 114 -15 120 -5 7 -11
83 -13 171 -3 125 -2 143 4 84 5 -41 14 -83 19 -93 6 -10 15 -83 20 -162 5
-80 11 -149 14 -154 9 -14 47 -375 51 -491 3 -58 10 -123 15 -145 6 -22 40
-314 75 -649 35 -334 66 -611 69 -614 3 -3 9 -3 12 1 3 3 -22 268 -55 589 -34
321 -64 630 -67 687 -2 57 -9 111 -14 120 -5 10 -16 118 -25 242 -9 123 -20
235 -25 249 -14 40 -31 220 -34 368 -3 133 -3 134 7 52 5 -47 13 -87 17 -90 9
-6 30 -196 35 -320 2 -52 9 -122 14 -155 23 -135 32 -216 37 -320 3 -60 10
-128 15 -150 5 -22 38 -316 74 -654 36 -338 67 -617 70 -619 3 -3 8 -2 11 1 6
6 -79 864 -121 1232 -8 72 -15 154 -15 183 0 68 -17 223 -35 327 -8 44 -17
131 -20 193 -3 63 -9 121 -14 130 -13 26 -20 142 -11 192 7 45 8 45 9 8 0 -20
5 -38 11 -40 5 -1 14 -70 19 -153 6 -82 15 -165 20 -183 5 -18 11 -63 12 -100
3 -103 28 -352 39 -392 6 -19 14 -82 19 -140 16 -184 131 -1254 136 -1259 17
-17 15 39 -9 272 -15 144 -30 303 -32 352 -2 50 -9 115 -14 146 -6 31 -13 105
-16 165 -2 60 -11 134 -19 165 -8 31 -15 85 -16 120 -1 35 -12 165 -25 289
-13 124 -26 264 -30 313 -3 48 -9 87 -14 87 -9 0 -33 225 -35 340 -1 47 -4
123 -8 170 -5 66 -2 56 11 -45 10 -71 21 -137 24 -145 11 -25 29 -198 33 -317
2 -62 8 -143 15 -180 6 -38 20 -153 30 -258 10 -104 24 -211 29 -238 6 -26 10
-82 10 -125 0 -42 6 -117 14 -167 9 -49 18 -133 22 -185 3 -52 10 -108 15
-125 5 -16 23 -165 40 -330 18 -165 34 -302 36 -304 16 -16 15 38 -5 247 -12
130 -27 275 -32 322 -6 47 -14 119 -19 160 -17 143 -50 475 -54 550 -6 108
-27 304 -33 314 -9 13 -73 635 -67 650 5 13 -25 318 -102 1026 -24 228 -55
516 -69 640 -71 669 -90 812 -103 817 -28 11 -33 76 79 -1021 33 -324 59 -599
57 -610 -2 -12 -25 182 -51 429 -122 1127 -131 1199 -151 1203 -17 4 -18 -2
-11 -70 3 -40 36 -363 71 -718 36 -355 67 -674 69 -710 6 -94 -36 265 -105
900 -33 305 -62 565 -65 578 -3 12 -13 22 -21 22 -20 0 -24 56 62 -800 36
-355 67 -674 69 -710 5 -85 -30 224 -105 910 -33 305 -63 565 -65 578 -8 33
-35 28 -35 -7 0 -16 25 -277 55 -579 30 -302 55 -560 54 -573 -1 -13 -31 245
-68 573 -37 329 -70 600 -73 604 -4 3 -13 4 -20 2 -12 -2 -5 -95 39 -528 45
-452 61 -643 47 -565 -2 11 -29 247 -59 525 -65 601 -61 570 -85 570 -15 0
-18 -6 -14 -32 2 -18 20 -195 39 -393 19 -198 47 -467 61 -599 14 -131 24
-250 22 -265 -2 -14 -11 51 -21 144 -40 380 -117 1072 -123 1108 -4 28 -10 37
-25 37 -16 0 -19 -5 -14 -37 3 -21 12 -110 20 -198 8 -88 17 -178 20 -200 2
-22 9 -94 15 -160 7 -66 16 -133 21 -150 10 -29 57 -466 56 -515 -1 -36 12
-200 23 -300 6 -47 9 -98 9 -115 -1 -25 -16 83 -44 325 -3 30 -10 71 -16 90
-12 46 -51 420 -51 490 0 47 -57 606 -74 728 -5 33 -10 42 -26 42 -17 0 -19
-5 -14 -42z m304 -1223 c-1 -35 -2 -33 -8 15 -5 30 -8 73 -8 95 1 35 2 33 8
-15 5 -30 8 -73 8 -95z m90 -280 c0 -22 -9 30 -19 115 -10 85 -17 171 -17 190
0 19 9 -32 18 -115 10 -82 18 -168 18 -190z m-50 -105 c0 -19 -9 33 -18 115
-10 83 -18 168 -18 190 0 22 9 -30 19 -115 10 -85 17 -171 17 -190z m-80 185
c-1 -35 -2 -33 -8 15 -5 30 -8 73 -8 95 1 35 2 33 8 -15 5 -30 8 -73 8 -95z
m20 -190 c-1 -35 -2 -33 -8 15 -5 30 -8 73 -8 95 1 35 2 33 8 -15 5 -30 8 -73
8 -95z m282 -339 c23 -214 40 -398 38 -410 -3 -23 -89 787 -87 819 l2 20 3
-20 c2 -11 22 -195 44 -409z m-92 269 c-1 -35 -2 -33 -8 15 -5 30 -8 73 -8 95
1 35 2 33 8 -15 5 -30 8 -73 8 -95z m-60 -10 c-1 -35 -2 -33 -8 15 -5 30 -8
73 -8 95 1 35 2 33 8 -15 5 -30 8 -73 8 -95z m210 -260 c0 -22 -9 28 -18 110
-10 83 -18 168 -18 190 0 22 9 -27 18 -110 10 -82 18 -168 18 -190z m-238 -22
c18 -166 30 -310 28 -320 -4 -19 -69 599 -67 632 2 36 8 -6 39 -312z m-62 -23
c0 -19 -9 33 -18 115 -10 83 -18 168 -18 190 0 22 9 -30 19 -115 10 -85 17
-171 17 -190z m-60 -5 c0 -22 -9 30 -19 115 -10 85 -17 171 -17 190 0 19 9
-32 18 -115 10 -82 18 -168 18 -190z m230 130 c-1 -35 -2 -33 -8 15 -5 30 -8
73 -8 95 1 35 2 33 8 -15 5 -30 8 -73 8 -95z m-60 -10 c-1 -35 -2 -33 -8 15
-5 30 -8 73 -8 95 1 35 2 33 8 -15 5 -30 8 -73 8 -95z m80 -180 c-1 -35 -2
-33 -8 15 -5 30 -8 73 -8 95 1 35 2 33 8 -15 5 -30 8 -73 8 -95z m-60 -10 c-1
-35 -2 -33 -8 15 -5 30 -8 73 -8 95 1 35 2 33 8 -15 5 -30 8 -73 8 -95z m190
-70 c-1 -35 -2 -33 -8 15 -5 30 -8 73 -8 95 1 35 2 33 8 -15 5 -30 8 -73 8
-95z m-300 -40 c-1 -35 -2 -33 -8 15 -5 30 -8 73 -8 95 1 35 2 33 8 -15 5 -30
8 -73 8 -95z m-60 -10 c-1 -35 -2 -33 -8 15 -5 30 -8 73 -8 95 1 35 2 33 8
-15 5 -30 8 -73 8 -95z m250 -60 c-1 -35 -2 -33 -8 15 -5 30 -8 73 -8 95 1 35
2 33 8 -15 5 -30 8 -73 8 -95z m-60 -10 c-1 -35 -2 -33 -8 15 -5 30 -8 73 -8
95 1 35 2 33 8 -15 5 -30 8 -73 8 -95z m-168 -65 c7 -5 59 -441 58 -490 0 -8
2 -55 5 -105 4 -49 9 -128 11 -175 l5 -85 -10 75 c-5 41 -13 98 -18 125 -34
184 -78 612 -72 690 5 58 6 59 9 15 2 -24 7 -47 12 -50z"/>
<path d="M3500 4725 c0 -6 123 -1233 154 -1530 70 -683 100 -950 107 -955 6
-4 52 -445 80 -765 6 -66 17 -158 24 -205 17 -106 63 -544 70 -665 3 -49 9
-108 15 -130 5 -22 19 -138 31 -257 15 -146 26 -218 34 -218 8 0 6 44 -7 168
-10 92 -25 262 -33 379 -18 255 -33 393 -44 407 -5 6 -11 47 -15 91 -4 44 -13
141 -21 215 -8 74 -19 191 -25 260 -6 69 -16 159 -21 200 -25 193 -57 510 -53
527 6 22 -80 843 -237 2276 -21 184 -25 207 -41 207 -10 0 -18 -2 -18 -5z"/>
<path d="M3564 4688 c4 -24 29 -270 56 -548 102 -1038 192 -1884 201 -1890 7
-5 43 -325 55 -490 3 -41 12 -127 20 -190 31 -252 65 -596 60 -615 -4 -17 19
-231 44 -395 11 -75 60 -517 60 -541 0 -10 6 -19 14 -19 11 0 14 9 10 32 -12
86 -35 332 -44 465 -6 81 -17 209 -25 283 -8 74 -26 250 -40 390 -14 140 -30
264 -35 275 -5 11 -14 79 -19 150 -6 72 -17 182 -26 245 -9 63 -18 165 -20
225 -5 111 -18 246 -101 1025 -159 1507 -175 1640 -197 1640 -16 0 -17 -6 -13
-42z"/>
<path d="M3625 4693 c3 -21 23 -222 46 -448 42 -427 127 -1256 179 -1745 17
-157 33 -312 37 -345 3 -33 9 -62 13 -65 7 -5 27 -188 36 -330 3 -47 10 -105
15 -129 6 -25 12 -95 15 -155 3 -61 14 -194 25 -296 11 -102 28 -268 39 -370
11 -102 24 -216 30 -255 5 -38 22 -179 37 -312 21 -184 31 -243 41 -243 10 0
12 8 8 27 -3 16 -15 132 -26 258 -26 291 -66 701 -86 870 -27 226 -53 476 -64
600 -6 66 -15 140 -21 165 -5 25 -11 92 -14 150 -3 94 -63 692 -130 1300 -13
124 -33 313 -45 420 -11 107 -27 254 -35 325 -28 241 -65 580 -65 598 0 10 -8
17 -20 17 -18 0 -20 -5 -15 -37z"/>
<path d="M3687 4698 c78 -822 262 -2580 272 -2598 5 -9 12 -58 15 -110 4 -52
13 -153 21 -225 31 -281 44 -413 50 -490 3 -44 19 -204 36 -355 31 -288 36
-332 69 -600 11 -91 23 -198 27 -239 5 -49 13 -76 22 -79 11 -4 12 3 8 29 -4
19 -13 120 -22 224 -28 345 -42 482 -55 535 -4 19 -11 62 -14 95 -3 33 -17
166 -30 295 -13 129 -30 298 -36 375 -11 136 -35 335 -45 385 -3 14 -7 72 -10
130 -5 134 -142 1454 -241 2318 -18 166 -34 311 -34 322 0 13 -7 20 -18 20
-14 0 -17 -7 -15 -32z"/>
<path d="M3750 4703 c0 -16 7 -95 15 -178 8 -82 24 -244 35 -360 21 -214 110
-1073 175 -1695 20 -190 40 -354 45 -365 5 -11 14 -81 20 -155 17 -207 20
-246 36 -375 41 -341 84 -744 81 -765 -3 -22 12 -174 34 -350 35 -279 40 -314
46 -383 5 -61 16 -88 29 -74 3 2 0 42 -5 88 -6 46 -15 147 -21 224 -14 195
-20 250 -30 325 -5 36 -15 121 -20 190 -6 69 -15 143 -20 165 -5 22 -12 91
-15 154 -4 63 -11 125 -16 137 -4 13 -13 92 -19 175 -6 84 -13 156 -16 160 -8
13 -55 471 -50 485 6 14 -141 1411 -239 2279 -19 171 -35 318 -35 328 0 9 -7
17 -15 17 -10 0 -15 -10 -15 -27z"/>
<path d="M3810 4710 c0 -45 51 -550 240 -2375 12 -110 25 -209 30 -220 5 -11
11 -51 15 -90 3 -38 12 -128 20 -200 8 -71 17 -176 20 -233 3 -56 10 -114 15
-127 5 -13 12 -80 15 -147 3 -68 10 -139 15 -158 5 -19 12 -75 15 -125 3 -49
12 -151 20 -225 8 -74 21 -205 30 -290 9 -85 20 -173 25 -195 5 -22 14 -94 20
-160 13 -145 17 -165 31 -165 7 0 9 15 5 42 -3 24 -8 86 -11 138 -3 52 -9 124
-15 160 -5 36 -17 142 -25 235 -25 278 -44 465 -55 545 -6 41 -17 136 -25 210
-8 74 -25 241 -39 370 -14 129 -36 361 -51 515 -28 305 -160 1566 -201 1920
-40 347 -64 567 -64 582 0 7 -7 13 -15 13 -8 0 -15 -9 -15 -20z"/>
<path d="M3870 4713 c0 -10 7 -83 15 -163 8 -80 31 -307 50 -505 48 -486 180
-1742 205 -1940 21 -172 61 -544 85 -795 15 -155 53 -513 80 -750 8 -69 19
-174 24 -235 6 -60 16 -144 22 -185 6 -41 13 -90 15 -108 3 -17 10 -32 15 -32
7 0 9 20 5 58 -4 31 -9 103 -11 159 -2 55 -9 121 -14 145 -5 23 -12 81 -16
128 -3 47 -13 128 -20 180 -15 102 -41 357 -50 505 -3 50 -8 97 -10 105 -10
37 -52 402 -59 520 -9 137 -78 822 -191 1875 -22 202 -76 688 -105 935 -5 47
-10 93 -10 103 0 9 -7 17 -15 17 -8 0 -15 -8 -15 -17z"/>
<path d="M3930 4719 c0 -6 4 -52 10 -102 5 -51 24 -234 40 -407 69 -716 235
-2263 269 -2510 9 -62 23 -223 37 -410 3 -47 8 -88 10 -91 2 -4 8 -46 14 -95
5 -49 19 -165 30 -258 10 -93 17 -172 15 -176 -2 -3 2 -55 10 -115 7 -61 16
-150 19 -200 4 -49 13 -128 21 -175 8 -47 17 -106 20 -133 7 -56 25 -63 25 -9
0 80 -21 306 -29 316 -5 6 -14 78 -21 159 -6 81 -13 153 -15 160 -3 7 -16 120
-30 252 -13 132 -38 366 -54 520 -17 154 -33 316 -36 360 -18 255 -118 1218
-235 2277 -39 345 -70 632 -70 638 0 5 -7 10 -15 10 -8 0 -15 -5 -15 -11z"/>
<path d="M3994 4693 c3 -21 10 -92 16 -158 46 -508 220 -2179 270 -2585 11
-91 36 -311 55 -490 19 -179 44 -408 55 -510 11 -102 24 -238 30 -303 5 -64
12 -122 15 -127 3 -5 8 -67 10 -137 6 -163 37 -383 55 -383 25 0 16 111 -68
820 -11 91 -25 212 -31 270 -6 58 -20 184 -31 280 -10 96 -28 276 -40 400 -58
634 -194 1936 -275 2632 -19 164 -35 305 -35 313 0 8 -7 15 -16 15 -13 0 -15
-8 -10 -37z"/>
<path d="M4054 4703 c3 -16 10 -84 16 -153 27 -315 170 -1702 235 -2285 54
-475 55 -485 65 -565 17 -130 50 -451 56 -540 2 -47 9 -107 14 -135 11 -61 29
-246 35 -374 2 -51 9 -119 14 -150 5 -31 12 -96 16 -146 9 -146 42 -355 55
-355 19 0 15 167 -5 240 -2 8 -7 67 -10 130 -3 63 -12 138 -20 165 -7 28 -18
106 -24 175 -13 151 -22 237 -55 530 -15 124 -40 367 -56 540 -17 173 -32 335
-35 360 -3 25 -16 160 -30 300 -46 472 -176 1678 -220 2050 -14 113 -25 213
-25 223 0 9 -7 17 -16 17 -12 0 -14 -7 -10 -27z"/>
<path d="M4122 4648 c70 -733 193 -1926 239 -2328 11 -96 33 -290 49 -430 16
-140 43 -392 60 -560 32 -325 43 -426 65 -613 7 -64 13 -152 14 -195 0 -42 4
-98 10 -123 6 -25 16 -111 22 -190 6 -79 15 -148 20 -154 5 -5 9 -19 9 -32 0
-14 6 -23 16 -23 13 0 15 7 10 33 -5 31 -17 147 -36 380 -5 59 -12 112 -15
117 -7 11 -119 1063 -155 1445 -34 363 -49 522 -91 920 -63 611 -152 1424
-184 1690 -8 66 -15 125 -15 132 0 7 -6 13 -13 13 -10 0 -11 -17 -5 -82z"/>
<path d="M4184 4643 c24 -298 205 -2050 265 -2558 33 -277 59 -518 141 -1300
12 -110 21 -218 21 -240 -1 -33 39 -400 55 -512 3 -21 11 -33 21 -33 12 0 14
7 9 32 -3 18 -10 101 -16 183 -12 179 -27 312 -35 325 -4 6 -13 72 -21 148
-61 578 -129 1237 -159 1552 -55 570 -174 1688 -245 2300 -11 96 -20 178 -20
183 0 4 -5 7 -11 7 -9 0 -10 -25 -5 -87z"/>
<path d="M4244 4653 c30 -351 193 -1924 250 -2423 53 -460 67 -588 106 -960
22 -212 47 -450 56 -530 9 -80 16 -170 15 -200 0 -56 21 -252 39 -350 5 -30
12 -71 13 -90 2 -19 4 33 5 115 0 83 -6 193 -13 245 -17 114 -153 1391 -190
1780 -48 502 -217 2101 -245 2305 -5 39 -12 96 -15 128 -10 90 -29 72 -21 -20z"/>
<path d="M4304 4663 c19 -201 122 -1230 156 -1558 42 -396 53 -493 96 -865 14
-124 59 -531 99 -905 53 -495 73 -655 74 -590 1 50 -26 344 -58 655 -33 311
-74 711 -91 890 -58 610 -217 2100 -256 2398 -9 72 -27 50 -20 -25z"/>
<path d="M4360 4717 c0 -60 196 -1944 260 -2502 21 -187 54 -484 72 -660 29
-277 33 -308 36 -233 2 52 -12 226 -32 420 -20 183 -51 497 -71 698 -52 538
-225 2159 -241 2258 -5 31 -24 46 -24 19z"/>
<path d="M4420 4726 c0 -54 177 -1756 250 -2396 45 -402 58 -495 59 -424 1 78
-7 177 -34 434 -3 25 -25 250 -50 500 -25 250 -59 577 -75 725 -17 149 -51
461 -76 695 -50 471 -50 470 -64 470 -6 0 -10 -2 -10 -4z"/>
<path d="M4484 4688 c3 -24 38 -360 76 -748 39 -388 93 -901 119 -1140 46
-407 49 -427 50 -318 1 114 -29 439 -104 1123 -18 171 -52 483 -75 695 -45
426 -46 430 -61 430 -7 0 -9 -15 -5 -42z"/>
<path d="M4544 4689 c8 -57 23 -207 91 -879 30 -305 64 -627 75 -715 l19 -160
-3 170 c-2 111 -16 284 -40 500 -20 182 -55 507 -79 724 -31 287 -46 396 -55
399 -10 3 -12 -6 -8 -39z"/>
<path d="M4605 4693 c6 -42 36 -332 87 -838 31 -311 33 -324 36 -225 2 74 -11
234 -42 525 -25 231 -48 455 -52 498 -5 55 -11 77 -20 77 -11 0 -13 -10 -9
-37z"/>
<path d="M4664 4708 c3 -13 18 -147 33 -298 23 -226 29 -262 31 -200 5 112
-38 520 -55 520 -9 0 -12 -8 -9 -22z"/>
<path d="M0 72 c0 -40 4 -72 10 -72 8 0 3 129 -6 139 -2 2 -4 -28 -4 -67z"/>
</g>
</svg>
